<svg width="261" height="170" viewBox="0 0 261 170" fill="none" xmlns="http://www.w3.org/2000/svg">
<path d="M120.85 136.477L164.648 134.677L188.566 163.746L129.501 168.892L120.85 136.477Z" fill="white" stroke="#263238" stroke-linecap="round" stroke-linejoin="round"/>
<path d="M129.694 156.493L177.039 153.194L180.161 157.124L131.01 160.86L129.694 156.493Z" stroke="#263238" stroke-width="0.5" stroke-linecap="round" stroke-linejoin="round"/>
<path d="M128.271 151.773L173.646 148.917L175.091 150.74L128.879 153.785L128.271 151.773Z" stroke="#263238" stroke-width="0.5" stroke-linecap="round" stroke-linejoin="round"/>
<path d="M127.122 147.955L170.885 145.435L172.225 147.123L127.677 149.802L127.122 147.955Z" stroke="#263238" stroke-width="0.5" stroke-linecap="round" stroke-linejoin="round"/>
<path d="M124.165 138.14L163.727 136.417L169.651 143.882L126.608 146.249L124.165 138.14Z" stroke="#263238" stroke-width="0.5" stroke-linecap="round" stroke-linejoin="round"/>
<path d="M126.147 144.722L168.536 142.479L169.651 143.884L126.608 146.25L126.147 144.722Z" fill="#D1D1D1" stroke="#263238" stroke-width="0.5" stroke-linecap="round" stroke-linejoin="round"/>
<path d="M155.306 154.629L153.896 152.133L175.093 150.74L177.04 153.195" stroke="#263238" stroke-width="0.5" stroke-linecap="round" stroke-linejoin="round"/>
<path d="M130.148 157.998L178.119 154.552L179.028 155.691L130.532 159.267L130.148 157.998Z" fill="#D1D1D1" stroke="#263238" stroke-width="0.5" stroke-linecap="round" stroke-linejoin="round"/>
<path d="M148.065 159.439L147.398 158.016" stroke="#263238" stroke-width="0.5" stroke-linecap="round" stroke-linejoin="round"/>
<path d="M141.101 158.848L144.541 158.594L144.907 159.427L141.443 159.692L141.101 158.848Z" fill="#D1D1D1" stroke="#263238" stroke-width="0.5" stroke-linecap="round" stroke-linejoin="round"/>
<path d="M154.533 156.21L153.76 154.806" stroke="#263238" stroke-width="0.5" stroke-linecap="round" stroke-linejoin="round"/>
<path d="M144.353 156.942L143.716 155.502" stroke="#263238" stroke-width="0.5" stroke-linecap="round" stroke-linejoin="round"/>
<path d="M167.05 151.265L168.802 153.75" stroke="#263238" stroke-width="0.5" stroke-linecap="round" stroke-linejoin="round"/>
<path d="M161.855 151.608L163.484 154.122" stroke="#263238" stroke-width="0.5" stroke-linecap="round" stroke-linejoin="round"/>
<path d="M156.096 151.973L155.004 150.126" stroke="#263238" stroke-width="0.5" stroke-linecap="round" stroke-linejoin="round"/>
<path d="M145.031 152.729L142.388 147.105" stroke="#263238" stroke-width="0.5" stroke-linecap="round" stroke-linejoin="round"/>
<path d="M173.645 148.916L172.223 147.122L143.195 148.869" stroke="#263238" stroke-width="0.5" stroke-linecap="round" stroke-linejoin="round"/>
<path d="M162.805 149.59L161.613 147.819" stroke="#263238" stroke-width="0.5" stroke-linecap="round" stroke-linejoin="round"/>
<path d="M167.479 141.215L125.711 143.345" stroke="#263238" stroke-width="0.5" stroke-linecap="round" stroke-linejoin="round"/>
<path d="M166.529 140.024L125.315 142.048" stroke="#263238" stroke-width="0.5" stroke-linecap="round" stroke-linejoin="round"/>
<path d="M165.615 138.867L124.938 140.79" stroke="#263238" stroke-width="0.5" stroke-linecap="round" stroke-linejoin="round"/>
<path d="M159.271 140.696L160.611 140.631L161.018 141.198L159.667 141.263L159.271 140.696Z" fill="#D1D1D1" stroke="#263238" stroke-width="0.5" stroke-linecap="round" stroke-linejoin="round"/>
<path d="M151.446 141.085L152.821 141.015L153.181 141.593L151.8 141.664L151.446 141.085Z" fill="#D1D1D1" stroke="#263238" stroke-width="0.5" stroke-linecap="round" stroke-linejoin="round"/>
<path d="M156.096 139.67L157.435 139.605L157.819 140.159L156.473 140.224L156.096 139.67Z" fill="#D1D1D1" stroke="#263238" stroke-width="0.5" stroke-linecap="round" stroke-linejoin="round"/>
<path d="M148.667 140.023L150.036 139.958L150.372 140.525L148.997 140.589L148.667 140.023Z" fill="#D1D1D1" stroke="#263238" stroke-width="0.5" stroke-linecap="round" stroke-linejoin="round"/>
<path d="M141.408 140.372L142.807 140.307L143.096 140.879L141.691 140.944L141.408 140.372Z" fill="#D1D1D1" stroke="#263238" stroke-width="0.5" stroke-linecap="round" stroke-linejoin="round"/>
<path d="M133.885 140.732L135.307 140.667L135.555 141.246L134.121 141.316L133.885 140.732Z" fill="#D1D1D1" stroke="#263238" stroke-width="0.5" stroke-linecap="round" stroke-linejoin="round"/>
<path d="M158.629 140.401L157.809 139.227" stroke="#263238" stroke-width="0.5" stroke-linecap="round" stroke-linejoin="round"/>
<path d="M151.34 140.755L150.608 139.563" stroke="#263238" stroke-width="0.5" stroke-linecap="round" stroke-linejoin="round"/>
<path d="M143.893 141.121L143.262 139.912" stroke="#263238" stroke-width="0.5" stroke-linecap="round" stroke-linejoin="round"/>
<path d="M136.28 141.5L135.749 140.266" stroke="#263238" stroke-width="0.5" stroke-linecap="round" stroke-linejoin="round"/>
<path d="M164.706 137.722L124.566 139.545" stroke="#263238" stroke-width="0.5" stroke-linecap="round" stroke-linejoin="round"/>
<path d="M160.127 138.271L161.431 138.212L161.826 138.743L160.522 138.808L160.127 138.271Z" fill="#D1D1D1" stroke="#263238" stroke-width="0.5" stroke-linecap="round" stroke-linejoin="round"/>
<path d="M147.971 138.832L149.316 138.767L149.647 139.316L148.289 139.381L147.971 138.832Z" fill="#D1D1D1" stroke="#263238" stroke-width="0.5" stroke-linecap="round" stroke-linejoin="round"/>
<path d="M140.807 139.156L142.182 139.097L142.471 139.652L141.084 139.717L140.807 139.156Z" fill="#D1D1D1" stroke="#263238" stroke-width="0.5" stroke-linecap="round" stroke-linejoin="round"/>
<path d="M131.358 139.593L132.775 139.528L132.999 140.095L131.577 140.16L131.358 139.593Z" fill="#D1D1D1" stroke="#263238" stroke-width="0.5" stroke-linecap="round" stroke-linejoin="round"/>
<path d="M162.628 138.973L161.784 137.852" stroke="#263238" stroke-width="0.5" stroke-linecap="round" stroke-linejoin="round"/>
<path d="M150.597 139.545L149.9 138.394" stroke="#263238" stroke-width="0.5" stroke-linecap="round" stroke-linejoin="round"/>
<path d="M143.249 139.888L142.642 138.725" stroke="#263238" stroke-width="0.5" stroke-linecap="round" stroke-linejoin="round"/>
<path d="M133.713 140.342L133.229 139.156" stroke="#263238" stroke-width="0.5" stroke-linecap="round" stroke-linejoin="round"/>
<path d="M163.567 162.472L163.372 162.147L164.765 162.035L163.927 160.672L164.594 160.619L166.571 163.817L164.133 164.024L163.939 163.687L165.709 163.54L164.983 162.36L163.567 162.472Z" fill="#263238"/>
<path d="M163.172 163.298C163.472 163.8 163.172 164.165 162.251 164.248C161.33 164.331 160.634 164.042 160.351 163.534L159.407 161.858C159.135 161.38 159.407 161.026 160.345 160.955C161.283 160.884 161.909 161.156 162.186 161.634L163.172 163.298ZM161.513 161.669C161.407 161.513 161.256 161.393 161.08 161.322C160.905 161.252 160.713 161.235 160.528 161.274C160.038 161.309 159.908 161.498 160.073 161.787L161.047 163.493C161.154 163.656 161.307 163.784 161.487 163.858C161.667 163.933 161.865 163.952 162.056 163.912C162.546 163.87 162.682 163.67 162.511 163.375L161.513 161.669Z" fill="#263238"/>
<path d="M158.752 164.478C157.766 164.56 157.211 164.324 156.952 163.829L156.804 163.563C156.615 163.203 156.733 162.973 157.217 162.825C156.992 162.84 156.767 162.792 156.566 162.688C156.365 162.584 156.197 162.428 156.078 162.235L155.813 161.74C155.746 161.585 155.633 161.455 155.488 161.368L156.179 161.309C156.319 161.401 156.43 161.533 156.497 161.687L156.769 162.188C156.969 162.554 157.359 162.642 157.949 162.595L158.433 162.56L157.684 161.197L158.356 161.138L160.168 164.383L158.752 164.478ZM158.061 162.902C157.518 162.949 157.241 163.067 157.43 163.427L157.601 163.74C157.76 164.041 158.049 164.177 158.569 164.136L159.247 164.082L158.575 162.861L158.061 162.902Z" fill="#263238"/>
<path d="M152.644 161.574L153.305 161.521L155.666 164.029L154.32 161.433L154.91 161.385L156.622 164.655L155.642 164.737L153.282 162.188L153.606 164.914L152.615 164.997L151.016 161.698L151.665 161.645L152.963 164.277L152.644 161.574Z" fill="#263238"/>
<path d="M180.533 157.822L161.077 159.321" stroke="#263238" stroke-width="0.5" stroke-miterlimit="10"/>
<path d="M156.81 159.651L144.606 160.589" stroke="#263238" stroke-width="0.5" stroke-miterlimit="10"/>
<path d="M141.213 160.855L131.157 161.628" stroke="#263238" stroke-width="0.5" stroke-miterlimit="10"/>
<path d="M161.602 43.6987C157.414 44.9382 153.335 46.5171 149.404 48.4197C142.913 51.5709 130.131 56.2919 124.029 58.6523C117.927 61.0128 114.198 67.1087 113.017 70.0593C111.837 73.0099 106.721 85.5971 106.721 85.5971C106.721 85.5971 95.904 102.516 93.1482 106.647C90.3923 110.777 86.6569 116.484 86.4622 121.795C86.2674 127.106 89.2121 130.057 96.0988 130.057C102.985 130.057 105.936 127.696 109.276 124.155C112.616 120.615 123.439 103.301 125.015 101.336C126.59 99.3704 130.916 91.8936 130.916 91.8936C130.916 91.8936 133.081 111.368 133.081 117.463V131.827H195.044C195.044 131.827 197.994 110.187 198.585 108.417C199.175 106.647 203.695 93.8587 203.695 93.8587C203.695 93.8587 220.023 120.219 222.75 123.76C225.476 127.301 233.26 134.76 240.884 131.774C248.508 128.788 246.945 120.609 242.814 110.777C238.683 100.946 231.43 84.2221 231.43 83.4255C231.43 82.6288 228.48 71.033 216.483 61.9806C204.486 52.9282 192.683 50.7683 189.928 49.3934C187.172 48.0184 178.32 43.6987 161.602 43.6987Z" fill="#B73F1E" stroke="#263238" stroke-linecap="round" stroke-linejoin="round"/>
<path d="M123.05 79.1055L130.722 91.1085C130.722 91.1085 124.425 84.6172 120.489 83.6317" stroke="#263238" stroke-linecap="round" stroke-linejoin="round"/>
<path d="M130.722 91.1087L126.196 89.533C126.196 89.533 122.065 87.1726 118.719 88.1581" stroke="#263238" stroke-linecap="round" stroke-linejoin="round"/>
<path d="M154.249 62.3872C154.692 65.627 155.713 69.6516 158.061 72.4192" stroke="#263238" stroke-linecap="round" stroke-linejoin="round"/>
<path d="M153.93 57.0762C153.93 57.0762 153.888 58.2033 153.995 59.9028" stroke="#263238" stroke-linecap="round" stroke-linejoin="round"/>
<path d="M156.084 74.7798C156.638 75.3459 157.23 75.8742 157.854 76.3613" stroke="#263238" stroke-linecap="round" stroke-linejoin="round"/>
<path d="M150.584 65.928C151.658 68.8404 153.243 71.5382 155.264 73.8946" stroke="#263238" stroke-linecap="round" stroke-linejoin="round"/>
<path d="M189.438 109.88C188.098 112.058 186.83 113.816 185.797 114.713" stroke="#263238" stroke-linecap="round" stroke-linejoin="round"/>
<path d="M199.37 90.3176C199.37 90.3176 194.797 100.656 190.519 108.021" stroke="#263238" stroke-linecap="round" stroke-linejoin="round"/>
<path d="M179.259 116.354C178.669 117.068 178.215 117.664 177.932 118.053" stroke="#263238" stroke-linecap="round" stroke-linejoin="round"/>
<path d="M186.783 107.431C186.783 107.431 183.16 111.644 180.486 114.908" stroke="#263238" stroke-linecap="round" stroke-linejoin="round"/>
<path d="M203.695 93.8586C203.695 93.8586 212.352 80.0911 212.748 78.9109" stroke="#263238" stroke-linecap="round" stroke-linejoin="round"/>
<path d="M210.315 88.5532C212.888 86.4701 216.754 83.8323 220.613 83.0415" stroke="#263238" stroke-linecap="round" stroke-linejoin="round"/>
<path d="M207.236 91.3028C207.236 91.3028 207.939 90.577 209.119 89.5325" stroke="#263238" stroke-linecap="round" stroke-linejoin="round"/>
<path d="M218.059 80.876C215.57 82.1739 213.201 83.6885 210.978 85.4022" stroke="#263238" stroke-linecap="round" stroke-linejoin="round"/>
<path d="M221.6 109.993C223.278 109.195 225.13 108.832 226.986 108.935C228.841 109.038 230.642 109.604 232.222 110.583" stroke="#263238" stroke-linecap="round" stroke-linejoin="round"/>
<path d="M223.37 107.431C223.37 107.431 230.251 106.056 235.367 109.202" stroke="#263238" stroke-linecap="round" stroke-linejoin="round"/>
<path d="M94.3281 109.792C95.5143 108.716 96.9211 107.913 98.45 107.438C99.979 106.963 101.593 106.828 103.18 107.042" stroke="#263238" stroke-linecap="round" stroke-linejoin="round"/>
<path d="M106.508 107.502C106.991 107.847 107.456 108.217 107.9 108.611" stroke="#263238" stroke-linecap="round" stroke-linejoin="round"/>
<path d="M101.216 105.271C102.343 105.412 103.436 105.751 104.444 106.274" stroke="#263238" stroke-linecap="round" stroke-linejoin="round"/>
<path d="M160.227 48.815C160.227 48.815 158.457 56.2918 159.047 61.7976C159.637 67.3034 165.733 75.7657 170.85 77.7308C175.966 79.6959 185.402 73.9953 188.748 70.6494C192.094 67.3034 192.289 56.6813 192.289 56.6813C192.289 56.6813 187.19 45.6697 176.355 42.5184C165.521 39.3672 160.227 48.815 160.227 48.815Z" fill="#ABABAB"/>
<path fill-rule="evenodd" clip-rule="evenodd" d="M164.053 44.247C166.79 42.2355 170.915 40.6289 176.437 42.2349C181.931 43.8327 185.96 47.4197 188.61 50.5921C189.937 52.1797 190.921 53.6678 191.575 54.7597C191.902 55.3058 192.146 55.7532 192.309 56.065C192.39 56.2209 192.452 56.343 192.493 56.4265C192.513 56.4683 192.529 56.5004 192.539 56.5224L192.551 56.5476L192.554 56.5543L192.555 56.5567C192.555 56.5569 192.555 56.557 192.288 56.681C192.583 56.6864 192.583 56.6865 192.583 56.6866L192.583 56.6949L192.582 56.7185C192.582 56.73 192.581 56.7445 192.581 56.762C192.581 56.776 192.58 56.7918 192.58 56.8095C192.577 56.8892 192.574 57.0061 192.568 57.1557C192.556 57.4551 192.535 57.8858 192.499 58.4128C192.428 59.4665 192.299 60.9074 192.064 62.4546C191.829 64.0007 191.488 65.6602 190.992 67.1483C190.498 68.6304 189.84 69.9731 188.956 70.8577C187.254 72.559 184.029 74.8391 180.587 76.4487C178.864 77.2544 177.076 77.8973 175.388 78.2136C173.703 78.5293 172.092 78.5243 170.743 78.006C168.107 76.9936 165.263 74.3336 163.012 71.2662C160.761 68.1971 159.056 64.6553 158.753 61.8288C158.454 59.0387 158.753 55.7639 159.123 53.1993C159.308 51.9143 159.512 50.8023 159.67 50.0114C159.749 49.6158 159.816 49.3004 159.863 49.0835C159.887 48.975 159.906 48.8912 159.919 48.8343L159.934 48.7695L159.938 48.7527L159.939 48.7472C159.939 48.7472 159.939 48.7468 160.227 48.8147C159.969 48.6705 159.969 48.6704 159.969 48.6702L159.97 48.6696L159.971 48.6678L159.974 48.6616L159.987 48.6393C159.998 48.6201 160.015 48.5923 160.036 48.5566C160.079 48.4852 160.144 48.3821 160.229 48.2528C160.399 47.9941 160.653 47.6301 160.992 47.2041C161.669 46.3527 162.688 45.2502 164.053 44.247ZM160.227 48.8147L159.969 48.6702C159.956 48.6941 159.946 48.7206 159.939 48.7472L160.227 48.8147ZM160.504 48.9243L160.494 48.9658C160.482 49.0211 160.463 49.1033 160.44 49.2101C160.393 49.4236 160.327 49.7352 160.249 50.1267C160.093 50.9097 159.891 52.011 159.707 53.2835C159.339 55.8337 159.049 59.0502 159.34 61.7659C159.627 64.4452 161.265 67.8875 163.488 70.9172C165.712 73.9487 168.474 76.5024 170.954 77.4551C172.163 77.9193 173.651 77.9386 175.279 77.6336C176.903 77.3292 178.643 76.7063 180.337 75.9142C183.728 74.3283 186.894 72.0851 188.538 70.4405C189.327 69.6521 189.948 68.4124 190.432 66.9617C190.913 65.5172 191.248 63.8937 191.48 62.366C191.712 60.8395 191.84 59.4157 191.911 58.3732C191.946 57.8521 191.966 57.4268 191.978 57.1322C191.984 56.9849 191.988 56.8703 191.99 56.7927C191.99 56.7745 191.991 56.7584 191.991 56.7444C191.983 56.7282 191.974 56.709 191.963 56.6867C191.924 56.6073 191.865 56.4897 191.786 56.3384C191.628 56.0357 191.389 55.5982 191.069 55.0627C190.427 53.9915 189.46 52.5297 188.158 50.9705C185.55 47.8493 181.613 44.3549 176.272 42.8015C170.959 41.2563 167.021 42.7979 164.402 44.7225C163.09 45.6874 162.108 46.7499 161.454 47.5715C161.127 47.982 160.883 48.3314 160.722 48.5771C160.641 48.6999 160.581 48.7967 160.541 48.8622C160.526 48.8878 160.513 48.9086 160.504 48.9243ZM192.288 56.681L192.583 56.6866C192.583 56.642 192.574 56.5972 192.555 56.5567L192.288 56.681Z" fill="#263238"/>
<path d="M200.905 47.275C200.905 47.275 201.931 50.3496 199.954 54.2384C197.978 58.1273 194.16 61.4143 193.133 61.0779C192.106 60.7415 196.325 46.6672 196.325 46.6672C196.325 46.6672 199.128 45.0916 200.905 47.275Z" fill="#ABABAB"/>
<path fill-rule="evenodd" clip-rule="evenodd" d="M196.324 46.6664C196.042 46.5817 196.042 46.5818 196.042 46.5819L195.994 46.7405C195.964 46.8439 195.919 46.9956 195.862 47.1886C195.749 47.5746 195.588 48.1264 195.398 48.7895C195.018 50.1155 194.522 51.8878 194.058 53.6713C193.594 55.4532 193.161 57.2525 192.907 58.6302C192.781 59.317 192.697 59.9109 192.679 60.3492C192.671 60.566 192.677 60.7631 192.71 60.9204C192.737 61.05 192.809 61.2818 193.04 61.3575C193.255 61.428 193.499 61.393 193.728 61.3206C193.964 61.2459 194.227 61.1176 194.505 60.9499C195.063 60.6137 195.715 60.0978 196.39 59.4556C197.74 58.1708 199.211 56.3505 200.217 54.3713C201.23 52.3789 201.475 50.5902 201.465 49.2954C201.46 48.6484 201.391 48.1251 201.323 47.7611C201.289 47.5791 201.255 47.4367 201.229 47.3386C201.216 47.2895 201.205 47.2515 201.197 47.225C201.193 47.2117 201.19 47.2014 201.188 47.194L201.185 47.1851L201.184 47.1824L201.184 47.1815C201.184 47.1813 201.184 47.1808 200.904 47.2743L201.184 47.1808C201.172 47.1471 201.155 47.1156 201.133 47.0881C200.159 45.8918 198.897 45.7296 197.91 45.859C197.418 45.9234 196.988 46.06 196.683 46.1795C196.529 46.2395 196.406 46.2957 196.32 46.3374C196.277 46.3583 196.243 46.3756 196.219 46.388C196.207 46.3942 196.198 46.3992 196.192 46.4028L196.184 46.4071L196.181 46.4084L196.18 46.4089C196.18 46.409 196.18 46.4092 196.324 46.6664ZM196.571 46.8713L196.56 46.9086C196.53 47.0115 196.485 47.1626 196.428 47.3551C196.315 47.74 196.154 48.2904 195.965 48.952C195.586 50.2755 195.091 52.0428 194.629 53.8199C194.166 55.5986 193.737 57.381 193.488 58.7369C193.363 59.4168 193.285 59.9777 193.269 60.3734C193.261 60.5736 193.269 60.7134 193.287 60.7993C193.288 60.8015 193.288 60.8036 193.289 60.8057C193.344 60.8067 193.429 60.7961 193.55 60.758C193.726 60.7021 193.945 60.5984 194.201 60.4446C194.71 60.1375 195.328 59.6516 195.983 59.0281C197.293 57.7813 198.72 56.0136 199.691 54.1039C200.655 52.2075 200.884 50.5145 200.875 49.2999C200.87 48.6921 200.806 48.2038 200.743 47.8697C200.712 47.7028 200.681 47.5745 200.659 47.4893C200.651 47.46 200.644 47.4357 200.639 47.4168C199.841 46.4691 198.832 46.3333 197.986 46.4441C197.555 46.5006 197.173 46.6215 196.898 46.7291C196.76 46.7828 196.651 46.8326 196.577 46.8685C196.575 46.8695 196.573 46.8704 196.571 46.8713ZM193.305 60.8572C193.305 60.8574 193.304 60.8556 193.302 60.8509C193.304 60.8546 193.305 60.857 193.305 60.8572ZM196.324 46.6664L196.18 46.4092C196.113 46.4467 196.064 46.5087 196.042 46.5819L196.324 46.6664Z" fill="#263238"/>
<path d="M157.507 36.0385C157.507 36.0385 155.566 38.6291 156.209 42.9488C156.852 47.2684 159.448 51.5822 160.528 51.5822C161.608 51.5822 162.039 36.906 162.039 36.906C162.039 36.906 159.879 34.5278 157.507 36.0385Z" fill="#ABABAB"/>
<path fill-rule="evenodd" clip-rule="evenodd" d="M162.257 36.7078C162.258 36.7079 162.258 36.708 162.039 36.9064C162.334 36.915 162.334 36.9151 162.334 36.9152L162.329 37.0806C162.326 37.1883 162.32 37.3463 162.314 37.5472C162.3 37.9491 162.279 38.5231 162.25 39.2118C162.193 40.5891 162.105 42.4262 161.983 44.264C161.862 46.1001 161.706 47.9434 161.512 49.3303C161.416 50.0217 161.308 50.6116 161.187 51.0334C161.127 51.242 161.059 51.4271 160.979 51.5661C160.912 51.6805 160.771 51.8777 160.529 51.8777C160.302 51.8777 160.082 51.7685 159.887 51.6283C159.686 51.4835 159.476 51.2795 159.265 51.0333C158.841 50.54 158.383 49.8461 157.945 49.0248C157.067 47.3819 156.244 45.1914 155.917 42.9926C155.588 40.7797 155.92 39.0044 156.338 37.7789C156.546 37.1666 156.776 36.6919 156.956 36.3682C157.045 36.2063 157.123 36.0821 157.178 35.9972C157.206 35.9547 157.228 35.9221 157.244 35.8995C157.252 35.8882 157.258 35.8794 157.263 35.8731L157.268 35.8656L157.27 35.8633L157.271 35.8625C157.271 35.8624 157.271 35.862 157.507 36.0389L157.271 35.862C157.292 35.8335 157.319 35.8091 157.349 35.79C158.649 34.9623 159.896 35.2065 160.792 35.6406C161.237 35.8568 161.601 36.1218 161.853 36.3316C161.98 36.4368 162.079 36.5291 162.148 36.5958C162.182 36.6292 162.209 36.6563 162.227 36.6755C162.236 36.6851 162.244 36.6927 162.249 36.6982L162.255 36.7048L162.257 36.7068L162.257 36.7078ZM157.714 36.2577C157.703 36.2739 157.689 36.2948 157.672 36.3201C157.624 36.3938 157.554 36.5057 157.472 36.6542C157.307 36.9512 157.092 37.3941 156.896 37.9694C156.504 39.1191 156.187 40.799 156.501 42.9057C156.817 45.0267 157.614 47.1529 158.465 48.7467C158.891 49.5439 159.325 50.1983 159.712 50.6488C159.906 50.8745 160.082 51.0413 160.232 51.1493C160.334 51.2233 160.411 51.2597 160.465 51.276C160.466 51.2739 160.467 51.2718 160.468 51.2695C160.513 51.1935 160.565 51.0633 160.62 50.8706C160.729 50.4898 160.832 49.9331 160.928 49.2486C161.119 47.8837 161.273 46.0579 161.394 44.225C161.516 42.3938 161.603 40.5618 161.66 39.1873C161.689 38.5001 161.71 37.9275 161.724 37.5268C161.731 37.3264 161.736 37.1691 161.739 37.0618L161.74 37.0229C161.739 37.0214 161.737 37.0199 161.736 37.0184C161.677 36.961 161.589 36.8793 161.476 36.7852C161.249 36.5963 160.925 36.3612 160.534 36.1716C159.768 35.8 158.768 35.6106 157.714 36.2577ZM160.433 51.3194C160.433 51.3191 160.435 51.3172 160.438 51.3144C160.435 51.3182 160.433 51.3196 160.433 51.3194ZM162.039 36.9064L162.334 36.9152C162.336 36.8389 162.309 36.7643 162.257 36.7078L162.039 36.9064Z" fill="#263238"/>
<path d="M160.746 41.651C160.746 41.651 159.236 54.8224 160.959 60.222C162.682 65.6216 166.14 74.0366 171.54 76.1965C176.939 78.3563 189.243 69.0737 191.185 65.4032C193.126 61.7327 198.526 46.189 198.526 46.189C199.946 44.2987 200.868 42.0822 201.208 39.7426C201.549 37.4031 201.296 35.0156 200.473 32.7992C197.664 25.0274 182.551 20.2769 176.278 20.4953C170.005 20.7136 163.756 25.8948 163.325 29.9962C162.894 34.0975 160.746 41.651 160.746 41.651Z" fill="#ABABAB"/>
<path fill-rule="evenodd" clip-rule="evenodd" d="M196.574 27.3369C198.508 28.8911 200.022 30.6861 200.749 32.6976C201.589 34.9599 201.847 37.3968 201.5 39.7847C201.154 42.1579 200.222 44.4072 198.789 46.3288L198.742 46.4613C198.702 46.5761 198.643 46.745 198.568 46.9612C198.416 47.3937 198.197 48.0156 197.929 48.7732C197.392 50.2884 196.656 52.3472 195.859 54.5208C194.27 58.8572 192.427 63.6836 191.445 65.5408C190.933 66.5074 189.767 67.8047 188.251 69.1614C186.728 70.5253 184.826 71.9722 182.815 73.2357C180.806 74.4983 178.678 75.584 176.704 76.2179C174.739 76.8486 172.876 77.0487 171.429 76.4701C168.635 75.3523 166.378 72.6359 164.614 69.571C162.844 66.4964 161.542 63.0205 160.677 60.3113C160.234 58.9245 160.004 57.0583 159.903 55.0568C159.802 53.0505 159.829 50.8882 159.911 48.8992C159.992 46.9096 160.128 45.0898 160.243 43.7675C160.3 43.1062 160.352 42.5691 160.391 42.1971C160.41 42.0111 160.425 41.8663 160.436 41.7679C160.441 41.7187 160.445 41.6811 160.448 41.6558L160.451 41.627L160.452 41.6177C160.452 41.6176 160.452 41.617 160.746 41.6506C160.462 41.5699 160.462 41.5699 160.462 41.5698L160.468 41.5485L160.486 41.4849C160.502 41.4289 160.525 41.3461 160.554 41.2391C160.614 41.0252 160.699 40.7148 160.803 40.3295C161.011 39.5588 161.292 38.4886 161.587 37.2907C162.178 34.8897 162.818 31.9935 163.031 29.965C163.259 27.7966 165.003 25.4109 167.431 23.5548C169.869 21.6906 173.057 20.3117 176.267 20.2C179.461 20.0888 184.853 21.2372 189.791 23.3799C192.265 24.4529 194.638 25.781 196.574 27.3369ZM160.746 41.6506L160.462 41.5698C160.457 41.5853 160.454 41.6011 160.452 41.617L160.746 41.6506ZM161.036 41.7078L161.054 41.6447C161.07 41.588 161.093 41.5046 161.123 41.397C161.183 41.1818 161.269 40.87 161.373 40.4831C161.581 39.7093 161.864 38.6348 162.16 37.4317C162.751 35.0306 163.4 32.0994 163.618 30.0266C163.821 28.0937 165.416 25.8381 167.789 24.0236C170.152 22.2174 173.225 20.8964 176.288 20.7898C179.366 20.6826 184.668 21.8003 189.556 23.9212C191.997 24.98 194.32 26.2831 196.204 27.7969C198.09 29.3122 199.517 31.025 200.195 32.8991L200.196 32.9015C201.001 35.0716 201.249 37.4092 200.916 39.6998C200.582 41.9904 199.679 44.1607 198.289 46.0114C198.271 46.0358 198.256 46.0629 198.246 46.0918L198.525 46.1886C198.246 46.0918 198.246 46.0917 198.246 46.0918L198.246 46.0925L198.245 46.0946L198.185 46.2669C198.145 46.3815 198.086 46.5502 198.011 46.7661C197.859 47.198 197.641 47.8192 197.373 48.5761C196.836 50.0901 196.101 52.1467 195.305 54.3177C193.71 58.6709 191.882 63.4516 190.923 65.2649C190.464 66.1336 189.364 67.373 187.858 68.7217C186.359 70.0631 184.484 71.49 182.501 72.736C180.517 73.9829 178.435 75.0423 176.523 75.6561C174.601 76.2732 172.902 76.4235 171.648 75.9222C169.043 74.8801 166.871 72.309 165.125 69.2766C163.386 66.2537 162.098 62.8223 161.239 60.1319C160.82 58.819 160.593 57.0139 160.493 55.0271C160.392 53.0451 160.42 50.9022 160.5 48.9233C160.581 46.9451 160.716 45.1347 160.83 43.8186C160.888 43.1607 160.94 42.6266 160.978 42.2572C160.996 42.0725 161.012 41.929 161.022 41.8318C161.028 41.7832 161.032 41.7462 161.035 41.7214L161.036 41.7078Z" fill="#263238"/>
<path fill-rule="evenodd" clip-rule="evenodd" d="M175.237 49.268C175.237 49.2682 175.237 49.2683 174.78 49.6411L175.237 49.268C175.443 49.5206 175.405 49.8927 175.152 50.0986C174.9 50.3044 174.528 50.2665 174.322 50.014L174.32 50.0118L174.312 50.0016C174.304 49.9922 174.292 49.9775 174.275 49.958C174.242 49.9189 174.192 49.8607 174.126 49.7864C173.994 49.6378 173.799 49.4258 173.551 49.1764C173.054 48.6763 172.352 48.0334 171.525 47.4521C169.834 46.2639 167.809 45.4588 165.952 46.2961C165.655 46.43 165.305 46.2977 165.171 46.0006C165.037 45.7035 165.17 45.3541 165.467 45.2201C167.929 44.1101 170.439 45.2464 172.204 46.4865C173.104 47.1194 173.86 47.8123 174.388 48.3446C174.654 48.6114 174.863 48.8396 175.008 49.0023C175.08 49.0837 175.136 49.1487 175.175 49.1942C175.194 49.2169 175.209 49.2347 175.22 49.2472L175.232 49.2619L175.235 49.2662L175.237 49.268Z" fill="#263238"/>
<path fill-rule="evenodd" clip-rule="evenodd" d="M175.237 49.268C175.237 49.2682 175.237 49.2683 174.78 49.6411L175.237 49.268C175.443 49.5206 175.405 49.8927 175.152 50.0986C174.9 50.3044 174.528 50.2665 174.322 50.014L174.32 50.0118L174.312 50.0016C174.304 49.9922 174.292 49.9775 174.275 49.958C174.242 49.9189 174.192 49.8607 174.126 49.7864C173.994 49.6378 173.799 49.4258 173.551 49.1764C173.054 48.6763 172.352 48.0334 171.525 47.4521C169.834 46.2639 167.809 45.4588 165.952 46.2961C165.655 46.43 165.305 46.2977 165.171 46.0006C165.037 45.7035 165.17 45.3541 165.467 45.2201C167.929 44.1101 170.439 45.2464 172.204 46.4865C173.104 47.1194 173.86 47.8123 174.388 48.3446C174.654 48.6114 174.863 48.8396 175.008 49.0023C175.08 49.0837 175.136 49.1487 175.175 49.1942C175.194 49.2169 175.209 49.2347 175.22 49.2472L175.232 49.2619L175.235 49.2662L175.237 49.268Z" fill="#263238"/>
<path fill-rule="evenodd" clip-rule="evenodd" d="M182.948 51.4629C182.948 51.4629 182.948 51.463 183.158 52.0146L182.948 51.4629C182.644 51.5787 182.49 51.9198 182.606 52.2244C182.722 52.5289 183.063 52.6819 183.367 52.5662L183.37 52.5652L183.382 52.5606C183.394 52.5563 183.412 52.5498 183.436 52.5411C183.484 52.5239 183.557 52.4985 183.651 52.4672C183.84 52.4046 184.115 52.3184 184.454 52.2264C185.134 52.0417 186.064 51.836 187.071 51.7461C189.129 51.5624 191.285 51.8777 192.475 53.5315C192.665 53.7961 193.034 53.8562 193.299 53.6659C193.563 53.4756 193.623 53.1068 193.433 52.8422C191.856 50.6497 189.114 50.3788 186.966 50.5706C185.869 50.6684 184.869 50.8908 184.145 51.0873C183.782 51.1859 183.486 51.2786 183.279 51.3471C183.176 51.3814 183.095 51.4097 183.039 51.4298C183.011 51.4398 182.989 51.4478 182.974 51.4534L182.956 51.4601L182.95 51.462L182.948 51.4629Z" fill="#263238"/>
<path fill-rule="evenodd" clip-rule="evenodd" d="M166.265 50.66C166.419 50.6082 166.586 50.6911 166.638 50.8452L166.638 50.846L166.641 50.852C166.643 50.8578 166.646 50.8674 166.651 50.8805C166.661 50.9066 166.677 50.9465 166.7 50.9982C166.745 51.1014 166.816 51.2512 166.919 51.4308C167.125 51.7903 167.457 52.2666 167.956 52.7289C168.947 53.6463 170.619 54.5304 173.35 54.2985C173.513 54.2847 173.655 54.4052 173.669 54.5675C173.683 54.7299 173.562 54.8727 173.4 54.8865C170.501 55.1326 168.666 54.1903 167.555 53.1618C167.004 52.6511 166.637 52.1246 166.407 51.7245C166.292 51.5243 166.212 51.3551 166.159 51.2343C166.132 51.1739 166.113 51.1255 166.1 51.0914C166.093 51.0743 166.088 51.0608 166.085 51.051L166.081 51.0394L166.08 51.0357L166.079 51.0345L166.079 51.034C166.079 51.0338 166.079 51.0336 166.359 50.9397L166.079 51.0336C166.027 50.8791 166.11 50.7118 166.265 50.66Z" fill="#263238"/>
<path fill-rule="evenodd" clip-rule="evenodd" d="M181.778 56.4958C181.926 56.4274 182.101 56.4919 182.169 56.6398L181.902 56.7636C182.169 56.6398 182.169 56.6396 182.169 56.6394L182.169 56.639L182.169 56.6383L182.168 56.6378C182.168 56.6378 182.169 56.6385 182.169 56.6397C182.171 56.6422 182.173 56.6472 182.177 56.6546C182.185 56.6692 182.199 56.693 182.218 56.7244C182.258 56.7872 182.323 56.8802 182.421 56.9911C182.615 57.2124 182.938 57.5064 183.443 57.7719C184.452 58.3015 186.217 58.7337 189.191 58.2022C189.351 58.1736 189.504 58.2804 189.533 58.4408C189.562 58.6012 189.455 58.7545 189.295 58.7831C186.226 59.3316 184.32 58.8992 183.169 58.2943C182.594 57.9926 182.215 57.6518 181.977 57.3802C181.858 57.2446 181.775 57.1267 181.72 57.0401C181.692 56.9968 181.672 56.9613 181.658 56.9353C181.651 56.9223 181.646 56.9117 181.642 56.9036L181.637 56.8935L181.635 56.89L181.634 56.8886L181.634 56.888C181.634 56.8877 181.634 56.8874 181.902 56.7636L181.634 56.8874C181.565 56.7395 181.63 56.5642 181.778 56.4958Z" fill="#263238"/>
<path fill-rule="evenodd" clip-rule="evenodd" d="M171.325 60.4053C171.484 60.4401 171.585 60.5974 171.55 60.7566C171.375 61.558 171.488 62.3953 171.87 63.1211C172.201 63.6147 172.787 64.2295 173.448 64.7212C174.124 65.2241 174.822 65.5561 175.369 65.5561C175.989 65.5561 176.965 65.4431 177.872 65.2408C178.325 65.1399 178.753 65.0185 179.107 64.8815C179.468 64.7413 179.72 64.5968 179.85 64.4645C180.285 64.0182 180.667 63.5235 180.988 62.9901C181.073 62.8506 181.254 62.8057 181.394 62.8899C181.533 62.9741 181.578 63.1555 181.494 63.295C181.148 63.8672 180.739 64.398 180.272 64.8768L180.271 64.8778C180.05 65.1025 179.702 65.2838 179.32 65.4317C178.93 65.5829 178.471 65.7119 178.001 65.8168C177.061 66.0262 176.042 66.1462 175.369 66.1462C174.625 66.1462 173.797 65.717 173.095 65.1946C172.384 64.665 171.743 63.9965 171.371 63.4357C171.365 63.4277 171.36 63.4193 171.356 63.4108C170.903 62.5585 170.768 61.5732 170.974 60.6305C171.009 60.4713 171.166 60.3705 171.325 60.4053Z" fill="#263238"/>
<path fill-rule="evenodd" clip-rule="evenodd" d="M168.552 64.3717C168.552 64.3716 168.552 64.3717 168.552 64.3717L168.554 64.3736L168.56 64.3804L168.584 64.4079C168.605 64.4323 168.638 64.4684 168.68 64.5149C168.764 64.6078 168.887 64.742 169.042 64.9058C169.354 65.2336 169.794 65.6789 170.309 66.1492C171.35 67.099 172.661 68.1157 173.822 68.5046C174.968 68.8884 176.66 68.7565 178.27 68.4489C179.866 68.1441 181.32 67.6798 181.955 67.4505C182.108 67.3952 182.278 67.4747 182.333 67.628C182.388 67.7813 182.309 67.9504 182.155 68.0056C181.498 68.2426 180.014 68.7166 178.381 69.0285C176.764 69.3375 174.938 69.5006 173.635 69.0642C172.347 68.6328 170.958 67.5399 169.912 66.5851C169.383 66.1031 168.933 65.6474 168.614 65.3122C168.455 65.1445 168.329 65.0067 168.242 64.9106C168.198 64.8625 168.165 64.8248 168.142 64.799L168.116 64.7693L168.109 64.7615L168.107 64.7588C168.106 64.7587 168.106 64.7585 168.329 64.5651L168.107 64.7588C168 64.6357 168.013 64.4491 168.136 64.3423C168.259 64.2354 168.445 64.2486 168.552 64.3717Z" fill="#263238"/>
<path d="M211.09 26.7919C210.89 25.3757 211.899 23.3516 212.099 22.1418C212.3 20.9321 210.683 18.7014 209.273 16.8839C208.182 15.4289 207.611 13.6503 207.65 11.8325C207.65 10.6168 206.24 9.60772 205.024 8.79925C203.546 7.81548 202.189 6.6607 200.982 5.35887C200.173 4.34976 196.739 4.55041 196.131 4.55041C195.523 4.55041 192.897 2.33156 191.28 1.5231C189.663 0.714639 186.429 2.11322 186.429 2.11322C186.429 2.11322 182.588 0.295654 181.779 0.295654C180.971 0.295654 177.53 1.71193 177.53 1.71193C176.391 2.20044 175.205 2.57024 173.99 2.81546C173.769 2.75794 173.544 2.72041 173.317 2.70334C172.862 2.11322 168.82 4.5386 168.82 4.5386L165.185 5.12872L163.834 7.31805C162.541 7.45968 159.514 7.94358 159.302 9.42478C159.03 11.3132 159.302 12.1216 158.493 13.1956C157.685 14.2696 154.722 14.0041 155.543 16.4295C156.363 18.8549 158.233 20.7432 155.808 22.0946C153.383 23.446 152.037 25.8655 153.383 27.2109C154.728 28.5564 155.808 30.4448 155.543 31.5247C155.277 32.6046 155 35.03 156.08 35.567C157.031 36.118 157.933 36.7498 158.776 37.4554L160.122 40.406L160.93 42.2943C160.93 42.2943 162.276 37.9806 163.356 37.4436C164.436 36.9066 163.356 39.3319 165.515 39.3319C167.675 39.3319 169.823 29.0875 171.417 28.816C173.01 28.5446 177.908 37.715 182.741 37.715C187.574 37.715 193.546 33.4721 195.977 33.4721C198.409 33.4721 196.514 43.7106 196.514 45.8646C196.514 48.0185 197.051 50.1724 197.051 50.9868C197.051 51.8011 199.748 47.21 201.637 46.1301C202.156 45.8351 202.781 45.4751 203.436 45.062C203.436 45.1564 203.407 45.2095 203.407 45.2095C203.407 45.2095 210.081 40.9607 210.89 39.5503C211.698 38.1399 211.09 36.9184 211.09 35.7086C211.09 34.4989 211.899 33.4839 212.099 31.6663C212.3 29.8488 211.291 28.2023 211.09 26.7919Z" fill="#263238"/>
<path fill-rule="evenodd" clip-rule="evenodd" d="M180.687 0.234324C181.116 0.103836 181.525 0.000244141 181.778 0.000244141C181.921 0.000244141 182.102 0.038106 182.288 0.088719C182.48 0.141259 182.705 0.215079 182.946 0.301645C183.427 0.474921 183.99 0.70472 184.522 0.932834C185.056 1.16127 185.564 1.3895 185.938 1.56052C186.125 1.64606 186.279 1.71737 186.386 1.76733C186.404 1.77564 186.421 1.78335 186.436 1.79045C186.444 1.78724 186.452 1.78389 186.461 1.78043C186.555 1.74266 186.691 1.68995 186.859 1.62942C187.194 1.50853 187.659 1.35555 188.177 1.22812C188.694 1.10098 189.271 0.99732 189.829 0.978985C190.384 0.960773 190.945 1.02576 191.411 1.25884C192.187 1.64671 193.179 2.344 194.059 2.96219C194.124 3.00796 194.188 3.0533 194.252 3.09804C194.721 3.4268 195.15 3.72438 195.498 3.93975C195.672 4.04754 195.82 4.13061 195.938 4.18585C195.997 4.2134 196.044 4.23191 196.08 4.24313C196.115 4.25396 196.13 4.25491 196.13 4.25499C196.13 4.255 196.13 4.25499 196.13 4.25499C196.188 4.25499 196.277 4.2529 196.391 4.25022C196.837 4.23975 197.666 4.22029 198.501 4.2816C199.028 4.32025 199.574 4.39167 200.046 4.52209C200.502 4.64833 200.941 4.84327 201.204 5.16512C202.393 6.44694 203.73 7.58414 205.186 8.55322C205.793 8.95681 206.473 9.42569 207 9.95433C207.525 10.4791 207.944 11.107 207.944 11.8321V11.8384C207.906 13.5895 208.456 15.3027 209.506 16.7046C210.212 17.6135 210.978 18.6373 211.543 19.5899C211.826 20.0665 212.063 20.5337 212.218 20.966C212.37 21.3935 212.451 21.8155 212.389 22.1897C212.336 22.5141 212.229 22.8844 212.109 23.2675C212.06 23.4259 212.008 23.5848 211.956 23.7453C211.879 23.9832 211.801 24.2249 211.726 24.4745C211.473 25.3107 211.291 26.1135 211.381 26.75C211.451 27.2377 211.62 27.7473 211.807 28.313C211.879 28.5294 211.953 28.7541 212.026 28.9888C212.282 29.814 212.499 30.7276 212.392 31.6983C212.287 32.6449 212.024 33.3818 211.796 34.0148C211.565 34.6575 211.384 35.164 211.384 35.7083C211.384 35.988 211.419 36.2732 211.464 36.5783C211.471 36.6321 211.479 36.6867 211.488 36.742C211.525 36.9943 211.564 37.2607 211.586 37.5302C211.64 38.1999 211.588 38.9232 211.145 39.6967C211.022 39.9109 210.804 40.1553 210.54 40.4102C210.271 40.6698 209.937 40.9575 209.564 41.2588C208.817 41.8616 207.9 42.5294 207.013 43.1502C206.125 43.7715 205.263 44.3484 204.624 44.7697C204.304 44.9804 204.039 45.1523 203.854 45.2717C203.762 45.3314 203.69 45.3779 203.64 45.4095L203.584 45.4456L203.566 45.4572L203.565 45.4579C203.565 45.4579 203.564 45.4581 203.506 45.3659L203.565 45.4579C203.487 45.5074 203.392 45.5168 203.309 45.488C202.752 45.8312 202.227 46.1333 201.781 46.3863L201.636 46.1298L201.782 46.3859C201.782 46.386 201.782 46.3862 201.781 46.3863C201.351 46.6323 200.855 47.0926 200.341 47.6573C199.831 48.2175 199.323 48.8592 198.868 49.4486C198.75 49.6017 198.635 49.7521 198.525 49.8967C198.215 50.3026 197.939 50.6633 197.726 50.9139C197.589 51.0752 197.45 51.2268 197.329 51.3041C197.296 51.3253 197.249 51.3516 197.191 51.3662C197.132 51.3813 197.038 51.3895 196.942 51.3379C196.845 51.2861 196.799 51.2022 196.779 51.1423C196.759 51.0844 196.755 51.0283 196.755 50.9864C196.755 50.8067 196.725 50.5391 196.674 50.1874C196.648 50.0029 196.617 49.8066 196.585 49.595C196.555 49.4007 196.523 49.1934 196.49 48.9707C196.355 48.0577 196.218 46.9634 196.218 45.8642C196.218 45.3336 196.327 44.3468 196.457 43.179C196.464 43.1155 196.471 43.0514 196.478 42.9868C196.618 41.7234 196.778 40.2486 196.862 38.8426C196.947 37.4316 196.953 36.1123 196.795 35.1533C196.715 34.6715 196.598 34.309 196.449 34.0743C196.306 33.8509 196.154 33.7668 195.976 33.7668C195.433 33.7668 194.654 34.0089 193.673 34.408C193.033 34.6684 192.333 34.9846 191.584 35.3228C191.194 35.4986 190.792 35.6802 190.378 35.8631C187.982 36.9218 185.227 38.0097 182.74 38.0097C181.44 38.0097 180.166 37.395 178.981 36.5238C177.792 35.65 176.661 34.4941 175.643 33.3605C175.157 32.819 174.694 32.2797 174.263 31.7766L174.201 31.7043C173.75 31.1793 173.336 30.6979 172.961 30.2918C172.584 29.8838 172.257 29.5636 171.983 29.3551C171.846 29.251 171.731 29.1821 171.638 29.143C171.544 29.1035 171.491 29.1022 171.465 29.1066C171.438 29.1112 171.384 29.1317 171.304 29.2015C171.224 29.2702 171.134 29.3735 171.034 29.5153C170.835 29.7993 170.62 30.2025 170.393 30.6966C170.023 31.5005 169.636 32.5064 169.232 33.5565C169.14 33.7967 169.047 34.0392 168.953 34.2821C168.45 35.5776 167.923 36.8844 167.382 37.8687C167.112 38.3602 166.83 38.7871 166.536 39.0949C166.246 39.3974 165.904 39.6266 165.514 39.6266C164.916 39.6266 164.496 39.4563 164.209 39.1698C163.931 38.8925 163.814 38.5411 163.743 38.2577C163.724 38.179 163.703 38.0865 163.686 38.0056C163.674 37.9545 163.664 37.908 163.656 37.8727C163.631 37.768 163.611 37.704 163.591 37.6653C163.609 37.6607 163.617 37.6608 163.617 37.6606C163.617 37.6606 163.616 37.6605 163.613 37.66C163.59 37.6554 163.578 37.6422 163.578 37.6423C163.578 37.6424 163.581 37.6457 163.586 37.655C163.588 37.6582 163.59 37.6617 163.591 37.6653C163.571 37.6707 163.537 37.6822 163.486 37.7074C163.405 37.7479 163.297 37.8379 163.168 37.9939C163.042 38.1463 162.91 38.3438 162.775 38.5756C162.507 39.039 162.243 39.6147 162.01 40.1823C161.777 40.7482 161.577 41.2987 161.435 41.7082C161.364 41.9127 161.308 42.0817 161.27 42.1992C161.25 42.258 161.236 42.304 161.226 42.3351L161.214 42.3703L161.212 42.3791L161.211 42.3813L161.211 42.3818C161.174 42.4998 161.068 42.5823 160.944 42.5887C160.821 42.595 160.707 42.5237 160.658 42.4101L159.851 40.5249L159.852 40.528L160.121 40.4056L159.849 40.5217L159.851 40.5249L158.535 37.6386C158.552 37.6528 158.569 37.667 158.586 37.6813L158.775 37.455L158.507 37.5774L158.535 37.6386C157.721 36.9629 156.853 36.3567 155.938 35.8263C155.941 35.8278 155.944 35.8293 155.947 35.8308L156.078 35.5666L155.931 35.822C155.933 35.8234 155.936 35.8249 155.938 35.8263C155.584 35.6469 155.362 35.3237 155.226 34.9653C155.088 34.6045 155.027 34.1822 155.011 33.7609C154.977 32.9178 155.117 32.013 155.255 31.4539C155.361 31.0242 155.202 30.366 154.804 29.6036C154.415 28.8578 153.827 28.0732 153.173 27.4192C152.378 26.6239 152.412 25.5303 152.916 24.5226C153.42 23.5165 154.411 22.5344 155.663 21.8365C156.231 21.5202 156.507 21.1952 156.628 20.8758C156.75 20.5536 156.732 20.1861 156.607 19.7447C156.482 19.3002 156.258 18.8171 156.003 18.2727L155.981 18.226C155.735 17.7025 155.467 17.1304 155.262 16.5236C155.04 15.8672 155.058 15.3403 155.282 14.9144C155.5 14.4994 155.885 14.2367 156.274 14.0417C156.514 13.9213 156.791 13.811 157.05 13.7082C157.195 13.6505 157.334 13.5953 157.457 13.5419C157.832 13.3793 158.104 13.2196 158.256 13.0178C158.621 12.5332 158.742 12.1163 158.805 11.5809C158.83 11.3677 158.845 11.1413 158.862 10.8818C158.868 10.8039 158.873 10.7229 158.879 10.6384C158.905 10.2771 158.939 9.86456 159.008 9.38244M163.657 7.04075L163.581 7.16272L163.833 7.3177L163.8 7.0244C163.755 7.02941 163.707 7.03485 163.657 7.04075ZM203.526 44.781C203.529 44.7793 203.532 44.7777 203.534 44.776C203.718 44.6575 203.981 44.4865 204.299 44.2768C204.936 43.8574 205.793 43.2839 206.675 42.6667C207.557 42.049 208.461 41.3901 209.193 40.7996C209.559 40.5042 209.879 40.2286 210.13 39.9859C210.386 39.7384 210.553 39.5416 210.633 39.4032C210.998 38.7663 211.046 38.1736 210.998 37.5775C210.978 37.3296 210.942 37.0868 210.905 36.8356C210.896 36.7785 210.888 36.7209 210.88 36.6628C210.835 36.3546 210.794 36.0335 210.794 35.7083C210.794 35.0575 211.008 34.4638 211.226 33.8566L211.241 33.8153C211.468 33.184 211.709 32.5046 211.805 31.6336C211.899 30.7868 211.712 29.9683 211.462 29.1633C211.399 28.9594 211.331 28.7534 211.263 28.5473C211.069 27.963 210.874 27.3773 210.797 26.8331C210.687 26.0534 210.909 25.136 211.161 24.3037C211.237 24.052 211.319 23.7969 211.398 23.5525C211.45 23.3928 211.5 23.2376 211.546 23.091C211.666 22.7101 211.761 22.3737 211.807 22.0932C211.845 21.8626 211.8 21.552 211.662 21.1643C211.525 20.7813 211.308 20.3504 211.035 19.891C210.49 18.9721 209.743 17.9726 209.039 17.0644L209.036 17.0605C207.906 15.5536 207.314 13.7118 207.354 11.8291C207.354 11.828 207.354 11.8269 207.354 11.8258L207.649 11.8321H207.354C207.354 11.8311 207.354 11.8301 207.354 11.8291C207.353 11.3396 207.067 10.8561 206.583 10.3713C206.102 9.88936 205.468 9.44946 204.859 9.04459C203.362 8.04795 201.987 6.87801 200.764 5.55916C200.759 5.55394 200.755 5.54855 200.75 5.543C200.608 5.36562 200.318 5.20965 199.888 5.09087C199.47 4.9751 198.967 4.90747 198.458 4.87014C197.658 4.8114 196.881 4.82937 196.426 4.83988C196.301 4.84278 196.2 4.84511 196.13 4.84511C195.984 4.84511 195.825 4.78437 195.688 4.72042C195.54 4.65116 195.37 4.55457 195.188 4.4417C194.822 4.21578 194.379 3.90812 193.913 3.58111C193.854 3.53917 193.793 3.49692 193.733 3.45447C192.839 2.82634 191.881 2.15372 191.147 1.78666C190.805 1.61551 190.355 1.55214 189.849 1.56879C189.346 1.5853 188.811 1.6797 188.318 1.80115C187.825 1.92231 187.381 2.06844 187.059 2.18452C186.898 2.24247 186.769 2.29272 186.68 2.32827C186.636 2.34605 186.601 2.36014 186.579 2.36967L186.553 2.38043L186.547 2.38304L186.545 2.38361L186.428 2.11287L186.302 2.37957L186.291 2.37453L186.259 2.35951C186.231 2.34632 186.19 2.32692 186.137 2.3022C186.031 2.25277 185.878 2.18208 185.693 2.09723C185.321 1.92745 184.818 1.70129 184.29 1.47534C183.762 1.24906 183.212 1.02447 182.746 0.85695C182.513 0.773119 182.304 0.704942 182.132 0.658084C181.953 0.609299 181.837 0.590362 181.778 0.590362C181.627 0.590362 181.303 0.663805 180.859 0.79887C180.431 0.929266 179.931 1.10411 179.452 1.28031C178.975 1.45627 178.522 1.63239 178.188 1.76461C178.021 1.83069 177.884 1.88573 177.789 1.92422C177.742 1.94346 177.705 1.95856 177.68 1.96883L177.651 1.98051L177.645 1.98276C177.645 1.98305 177.644 1.98334 177.643 1.98364M173.105 2.90916C173.155 2.96024 173.222 2.9918 173.294 2.99721C173.503 3.01296 173.711 3.04756 173.914 3.10061C173.957 3.11194 174.003 3.11322 174.047 3.10434C175.281 2.85525 176.486 2.4797 177.643 1.98364M173.105 2.90916C173.091 2.90664 173.062 2.90358 173.011 2.90687C172.893 2.91438 172.726 2.95192 172.513 3.02131C172.091 3.1588 171.559 3.39879 171.029 3.66334C170.501 3.92657 169.986 4.20865 169.603 4.42539C169.411 4.53364 169.253 4.62534 169.143 4.68988C169.087 4.72215 169.044 4.74762 169.015 4.76496L168.982 4.78471L168.971 4.79091L168.971 4.79126C168.939 4.81052 168.903 4.8235 168.866 4.8295L165.364 5.39802L164.084 7.47268C164.036 7.55006 163.955 7.6011 163.865 7.611C163.225 7.6811 162.171 7.8347 161.257 8.14785C160.8 8.30462 160.394 8.49584 160.096 8.72448C159.799 8.95238 159.631 9.19847 159.593 9.46632C159.526 9.92838 159.493 10.3252 159.468 10.6801C159.462 10.7586 159.457 10.8358 159.452 10.9116C159.434 11.1743 159.418 11.4205 159.391 11.6496C159.319 12.259 159.171 12.7834 158.728 13.3727C158.475 13.708 158.074 13.9178 157.692 14.0833C157.531 14.1531 157.376 14.2144 157.225 14.274C156.988 14.3677 156.761 14.4573 156.538 14.5691C156.188 14.7452 155.936 14.938 155.804 15.1889C155.678 15.429 155.633 15.7783 155.821 16.3346C156.015 16.9094 156.271 17.4552 156.52 17.9861L156.537 18.0222C156.788 18.5563 157.034 19.0845 157.175 19.5841C157.317 20.087 157.364 20.5965 157.18 21.0842C156.995 21.5748 156.596 21.9926 155.951 22.352C154.778 23.0055 153.883 23.9088 153.444 24.7867C153.006 25.6629 153.04 26.4518 153.59 27.0019C154.282 27.6934 154.907 28.5257 155.327 29.3304C155.739 30.1186 155.988 30.9445 155.828 31.5948C155.7 32.1156 155.569 32.9634 155.6 33.7372C155.616 34.1244 155.671 34.4767 155.777 34.7554C155.883 35.0335 156.029 35.2124 156.21 35.3024C156.215 35.3052 156.221 35.3082 156.226 35.3113C157.192 35.8708 158.108 36.5123 158.965 37.2287C158.998 37.257 159.025 37.2925 159.044 37.3326L160.392 40.2894L160.895 41.4645C161.038 41.054 161.235 40.5142 161.464 39.9577C161.702 39.3797 161.977 38.7763 162.265 38.2798C162.408 38.0316 162.559 37.804 162.713 37.6177C162.864 37.435 163.035 37.2728 163.223 37.179C163.38 37.101 163.552 37.0475 163.724 37.0804C163.916 37.117 164.033 37.2446 164.102 37.3684C164.166 37.4831 164.202 37.6196 164.23 37.7368C164.245 37.798 164.256 37.8508 164.267 37.9025C164.282 37.9695 164.296 38.0347 164.316 38.1144C164.38 38.3702 164.465 38.5915 164.626 38.7522C164.778 38.9037 165.033 39.0365 165.514 39.0365C165.665 39.0365 165.862 38.9456 166.11 38.6869C166.352 38.4333 166.605 38.0578 166.865 37.5846C167.384 36.6396 167.898 35.3683 168.402 34.0688C168.495 33.8304 168.587 33.591 168.679 33.3527C169.083 32.3017 169.479 31.2729 169.857 30.4501C170.089 29.9456 170.321 29.5039 170.552 29.1757C170.667 29.0114 170.789 28.8667 170.917 28.7556C171.044 28.6454 171.194 28.5541 171.366 28.5248C171.54 28.4952 171.711 28.5338 171.866 28.5988C172.022 28.6642 172.181 28.7645 172.34 28.8852C172.657 29.1263 173.012 29.4779 173.394 29.8914C173.778 30.3069 174.199 30.7967 174.648 31.3199L174.709 31.3909C175.142 31.895 175.601 32.4298 176.082 32.9663C177.093 34.0914 178.192 35.2111 179.33 36.0483C180.473 36.8881 181.623 37.4196 182.74 37.4196C185.086 37.4196 187.734 36.3861 190.14 35.3233C190.542 35.1453 190.939 34.9661 191.327 34.7914C192.083 34.45 192.801 34.1259 193.451 33.8614C194.425 33.465 195.304 33.1767 195.976 33.1767C196.407 33.1767 196.727 33.4125 196.946 33.7574C197.159 34.091 197.292 34.5453 197.377 35.057C197.547 36.0851 197.536 37.46 197.451 38.8779C197.366 40.3008 197.204 41.7895 197.065 43.0516L197.048 43.2041C196.915 44.4072 196.808 45.3675 196.808 45.8642C196.808 46.9189 196.94 47.9786 197.074 48.8846C197.105 49.0956 197.137 49.3031 197.167 49.4999C197.201 49.7173 197.232 49.9216 197.258 50.1034C197.278 50.2401 197.296 50.3705 197.31 50.4921C197.507 50.2563 197.757 49.9299 198.046 49.5514C198.159 49.4041 198.277 49.249 198.401 49.0883C198.857 48.4967 199.377 47.8391 199.904 47.2601C200.427 46.686 200.975 46.1676 201.489 45.8736L201.49 45.8732C202.008 45.5787 202.629 45.2214 203.278 44.8121C203.353 44.7648 203.444 44.7542 203.526 44.781M168.716 4.256C168.747 4.23815 168.79 4.21257 168.845 4.18049C168.957 4.1147 169.118 4.02153 169.313 3.91162C169.701 3.69204 170.225 3.40466 170.765 3.13531C171.302 2.86728 171.866 2.61156 172.33 2.46026C172.56 2.38526 172.783 2.33014 172.973 2.31796C173.106 2.3095 173.29 2.31732 173.438 2.41748C173.625 2.43624 173.812 2.46802 173.995 2.51258C175.168 2.27138 176.313 1.91217 177.413 1.4404L177.417 1.43871L177.521 1.69246C177.417 1.43874 177.417 1.43872 177.417 1.43871L177.427 1.43453L177.456 1.42253C177.482 1.41204 177.52 1.39672 177.568 1.37723C177.664 1.33827 177.802 1.28267 177.971 1.21597C178.307 1.08264 178.765 0.904686 179.248 0.726572C179.731 0.548708 180.243 0.369479 180.687 0.234324M186.545 2.38361C186.468 2.41728 186.379 2.41587 186.302 2.37957L186.428 2.11287" fill="#263238"/>
<path d="M260.5 131.779H0.5" stroke="#263238" stroke-linecap="round" stroke-linejoin="round"/>
<path d="M232.233 114.577C232.233 114.577 224.863 111.869 219.564 113.987C214.264 116.106 201.825 121.14 193.356 122.727C185.411 124.134 177.335 124.667 169.274 124.314C162.122 124.049 158.15 125.111 156.563 126.433C154.975 127.755 149.151 135.167 149.676 135.963C150.201 136.76 150.791 137.061 153.388 136.494C154.42 136.264 157.359 133.054 157.359 133.054L162.67 130.694C162.67 130.694 157.111 136.784 157.902 137.574C158.693 138.365 160.021 137.309 161.083 136.518C162.145 135.727 164.258 133.868 164.258 133.868L169.026 131.75C169.026 131.75 163.963 135.167 163.963 136.742C163.963 138.318 165.196 137.391 167.297 136.553C168.293 135.925 169.241 135.225 170.135 134.459L174.119 133.337C176.691 134.679 179.556 135.36 182.457 135.32C185.489 135.307 188.418 134.215 190.719 132.24C190.719 132.24 209.254 134.889 218.519 134.093C227.784 133.296 239.433 134.358 244.201 130.918C248.969 127.477 242.879 118.472 242.348 117.676" fill="#ABABAB"/>
<path d="M232.233 114.577C232.233 114.577 224.863 111.869 219.564 113.987C214.264 116.106 201.825 121.14 193.356 122.727C185.411 124.134 177.335 124.667 169.274 124.314C162.122 124.049 158.15 125.111 156.563 126.433C154.975 127.755 149.151 135.167 149.676 135.963C150.201 136.76 150.791 137.061 153.388 136.494C154.42 136.264 157.359 133.054 157.359 133.054L162.67 130.694C162.67 130.694 157.111 136.784 157.902 137.574C158.693 138.365 160.021 137.309 161.083 136.518C162.145 135.727 164.258 133.868 164.258 133.868L169.026 131.75C169.026 131.75 163.963 135.167 163.963 136.742C163.963 138.318 165.196 137.391 167.297 136.553C168.293 135.925 169.241 135.225 170.135 134.459L174.119 133.337C176.691 134.679 179.556 135.36 182.457 135.32C185.489 135.307 188.418 134.215 190.719 132.24C190.719 132.24 209.254 134.889 218.519 134.093C227.784 133.296 239.433 134.358 244.201 130.918C248.969 127.477 242.879 118.472 242.348 117.676" stroke="#263238" stroke-linecap="round" stroke-linejoin="round"/>
<path d="M150.903 136.695C150.903 136.695 151.889 133.857 152.874 132.623C153.86 131.39 158.421 128.433 160.027 127.572C160.663 127.204 161.321 126.875 161.998 126.586" stroke="#263238" stroke-linecap="round" stroke-linejoin="round"/>
<path d="M162.641 130.671L167.297 127.573" stroke="#263238" stroke-linecap="round" stroke-linejoin="round"/>
<path d="M168.997 131.727L173.34 129.543" stroke="#263238" stroke-linecap="round" stroke-linejoin="round"/>
<path d="M232.234 114.577C228.298 113.639 222.739 112.718 219.564 113.987C214.843 115.87 204.528 120.042 196.343 122.066C197.502 123.342 198.173 124.987 198.237 126.71C198.33 128.87 198.034 131.028 197.364 133.083C203.601 133.786 212.807 134.6 218.508 134.11C227.772 133.314 239.421 134.376 244.19 130.935C248.958 127.495 242.868 118.49 242.337 117.693" fill="#802513"/>
<path d="M232.234 114.577C228.298 113.639 222.739 112.718 219.564 113.987C214.843 115.87 204.528 120.042 196.343 122.066C197.502 123.342 198.173 124.987 198.237 126.71C198.33 128.87 198.034 131.028 197.364 133.083C203.601 133.786 212.807 134.6 218.508 134.11C227.772 133.314 239.421 134.376 244.19 130.935C248.958 127.495 242.868 118.49 242.337 117.693" stroke="#263238" stroke-linecap="round" stroke-linejoin="round"/>
<path d="M92.4405 113.781C92.9362 112.442 96.5713 109.237 101.463 110.093C106.355 110.949 111.908 116.383 115.083 120.562C118.258 124.74 120.79 125.873 120.79 125.873L117.048 137.303C117.048 137.303 114.747 136.748 110.427 135.651C106.108 134.553 96.4415 133.125 91.9979 131.744C87.5543 130.363 85.66 125.583 86.6278 121.122C87.1214 118.643 87.9659 116.246 89.1358 114.005" fill="#802513"/>
<path d="M92.4405 113.781C92.9362 112.442 96.5713 109.237 101.463 110.093C106.355 110.949 111.908 116.383 115.083 120.562C118.258 124.74 120.79 125.873 120.79 125.873L117.048 137.303C117.048 137.303 114.747 136.748 110.427 135.651C106.108 134.553 96.4415 133.125 91.9979 131.744C87.5543 130.363 85.66 125.583 86.6278 121.122C87.1214 118.643 87.9659 116.246 89.1358 114.005" stroke="#263238" stroke-linecap="round" stroke-linejoin="round"/>
<path d="M115.083 120.561C114.747 120.124 114.387 119.676 114.009 119.215C111.241 120.319 107.73 122.355 105.871 125.943C104.012 129.531 104.001 132.493 104.361 134.381C106.721 134.83 108.899 135.255 110.415 135.638C114.735 136.736 117.036 137.291 117.036 137.291L120.778 125.86C120.778 125.86 118.252 124.745 115.083 120.561Z" fill="#ABABAB" stroke="#263238" stroke-linecap="round" stroke-linejoin="round"/>
<path d="M113.555 131.727C113.307 133.498 112.764 135.522 115.326 136.643C117.887 137.764 120.436 140.532 122.047 141.181C123.996 141.928 126.033 142.42 128.107 142.644C129.748 142.751 131.772 143.288 134.988 142.391C138.204 141.494 138.116 140.667 138.116 140.667C138.116 140.667 140.122 140.744 141.114 140.254C142.105 139.765 141.409 138.537 140.205 138.053C139.001 137.569 137.526 136.92 137.526 136.92C137.526 136.92 139.355 135.233 138.895 134.814L138.44 134.395C138.44 134.395 140.553 134.642 140.736 133.97C140.919 133.297 139.591 130.323 139.06 127.821C138.529 125.319 137.414 125.655 135.378 125.254C133.342 124.852 130.568 125.366 126.91 124.587C123.251 123.808 117.952 125.118 115.857 125.673" fill="#ABABAB"/>
<path d="M113.555 131.727C113.307 133.498 112.764 135.522 115.326 136.643C117.887 137.764 120.436 140.532 122.047 141.181C123.996 141.928 126.033 142.42 128.107 142.644C129.748 142.751 131.772 143.288 134.988 142.391C138.204 141.494 138.116 140.667 138.116 140.667C138.116 140.667 140.122 140.744 141.114 140.254C142.105 139.765 141.409 138.537 140.205 138.053C139.001 137.569 137.526 136.92 137.526 136.92C137.526 136.92 139.355 135.233 138.895 134.814L138.44 134.395C138.44 134.395 140.553 134.642 140.736 133.97C140.919 133.297 139.591 130.323 139.06 127.821C138.529 125.319 137.414 125.655 135.378 125.254C133.342 124.852 130.568 125.366 126.91 124.587C123.251 123.808 117.952 125.118 115.857 125.673" stroke="#263238" stroke-linecap="round" stroke-linejoin="round"/>
<path d="M127.841 114.702L131.182 126.504L133.849 127.773L129.895 114.106C129.854 113.961 129.782 113.826 129.684 113.711C129.587 113.596 129.466 113.503 129.33 113.438C129.194 113.373 129.045 113.338 128.894 113.335C128.744 113.332 128.594 113.362 128.455 113.421C128.214 113.522 128.018 113.709 127.905 113.945C127.792 114.181 127.769 114.45 127.841 114.702Z" fill="#263238"/>
<path d="M129.736 125.6C129.736 125.6 135.578 128.716 135.979 128.876C136.257 128.988 138.859 133.337 139.685 135.426C140.069 136.382 139.638 136.931 138.741 137.426L137.531 136.936L130.267 132.363L127.605 131.094" fill="#ABABAB"/>
<path d="M129.736 125.6C129.736 125.6 135.578 128.716 135.979 128.876C136.257 128.988 138.859 133.337 139.685 135.426C140.069 136.382 139.638 136.931 138.741 137.426L137.531 136.936L130.267 132.363L127.605 131.094" stroke="#263238" stroke-linecap="round" stroke-linejoin="round"/>
<path d="M125.657 135.78C125.657 135.78 131.346 139.161 132.544 139.781C133.742 140.401 138.115 140.684 138.115 140.684" stroke="#263238" stroke-linecap="round" stroke-linejoin="round"/>
<path d="M123.528 139.103C123.528 139.103 128.302 141.735 129.241 142.054C130.179 142.372 132.191 142.927 132.191 142.927" stroke="#263238" stroke-linecap="round" stroke-linejoin="round"/>
<path d="M86.5617 161.038L108.349 140.997L60.3486 137.899L86.5617 161.038Z" fill="#CCCCCC" stroke="#263238" stroke-linecap="round" stroke-linejoin="round"/>
<path d="M85.6419 157.001L95.4496 147.707L84.0898 147.022L85.6419 157.001Z" fill="#263238" stroke="#263238" stroke-linecap="round" stroke-linejoin="round"/>
<path d="M18.8404 104.758L90.6991 107.939L86.5623 161.037L14.0723 157.538L18.8404 104.758Z" fill="#A6A6A6" stroke="#263238" stroke-linecap="round" stroke-linejoin="round"/>
<path d="M14.3906 154.003C18.6395 153.378 25.8094 151.708 37.9186 147.789C66.7459 138.46 70.3751 112.382 90.6988 107.939L18.8401 104.758L14.3906 154.003Z" fill="#263238" stroke="#263238" stroke-linecap="round" stroke-linejoin="round"/>
<path d="M51.9101 135.917C54.9542 135.917 57.4218 134.02 57.4218 131.68C57.4218 129.34 54.9542 127.443 51.9101 127.443C48.8661 127.443 46.3984 129.34 46.3984 131.68C46.3984 134.02 48.8661 135.917 51.9101 135.917Z" fill="white" stroke="#263238" stroke-linecap="round" stroke-linejoin="round"/>
</svg>
