<svg width="100" height="90" viewBox="0 0 100 90" fill="none" xmlns="http://www.w3.org/2000/svg">
<path d="M3.3125 0.9375C2.43397 0.9375 1.59142 1.25028 0.970209 1.80703C0.348995 2.36378 0 3.11889 0 3.90625C0 4.69361 0.348995 5.44872 0.970209 6.00547C1.59142 6.56222 2.43397 6.875 3.3125 6.875H10.6663L13.3229 16.4166L23.2471 63.8275C23.3892 64.5078 23.7921 65.1222 24.386 65.5646C24.98 66.0069 25.7277 66.2494 26.5 66.25H33.125C29.6109 66.25 26.2407 67.5011 23.7558 69.7281C21.271 71.9551 19.875 74.9756 19.875 78.125C19.875 81.2744 21.271 84.2949 23.7558 86.5219C26.2407 88.7489 29.6109 90 33.125 90C36.6391 90 40.0093 88.7489 42.4942 86.5219C44.979 84.2949 46.375 81.2744 46.375 78.125C46.375 74.9756 44.979 71.9551 42.4942 69.7281C40.0093 67.5011 36.6391 66.25 33.125 66.25H79.5C75.9859 66.25 72.6157 67.5011 70.1308 69.7281C67.646 71.9551 66.25 74.9756 66.25 78.125C66.25 81.2744 67.646 84.2949 70.1308 86.5219C72.6157 88.7489 75.9859 90 79.5 90C83.0141 90 86.3843 88.7489 88.8692 86.5219C91.354 84.2949 92.75 81.2744 92.75 78.125C92.75 74.9756 91.354 71.9551 88.8692 69.7281C86.3843 67.5011 83.0141 66.25 79.5 66.25H86.125C86.8973 66.2494 87.645 66.0069 88.239 65.5646C88.8329 65.1222 89.2358 64.5078 89.3779 63.8275L99.3154 16.3275C99.4049 15.899 99.388 15.4582 99.2659 15.0362C99.1439 14.6142 98.9196 14.2215 98.6091 13.886C98.2986 13.5505 97.9095 13.2804 97.4693 13.0948C97.0292 12.9093 96.5489 12.8129 96.0625 12.8125H19.1463L16.4631 3.18781C16.2843 2.54528 15.8709 1.97477 15.2887 1.56702C14.7065 1.15927 13.9889 0.937683 13.25 0.9375H3.3125ZM39.75 78.125C39.75 79.6997 39.052 81.2099 37.8096 82.3234C36.5672 83.4369 34.8821 84.0625 33.125 84.0625C31.3679 84.0625 29.6828 83.4369 28.4404 82.3234C27.198 81.2099 26.5 79.6997 26.5 78.125C26.5 76.5503 27.198 75.0401 28.4404 73.9266C29.6828 72.8131 31.3679 72.1875 33.125 72.1875C34.8821 72.1875 36.5672 72.8131 37.8096 73.9266C39.052 75.0401 39.75 76.5503 39.75 78.125ZM86.125 78.125C86.125 79.6997 85.427 81.2099 84.1846 82.3234C82.9422 83.4369 81.2571 84.0625 79.5 84.0625C77.7429 84.0625 76.0579 83.4369 74.8154 82.3234C73.573 81.2099 72.875 79.6997 72.875 78.125C72.875 76.5503 73.573 75.0401 74.8154 73.9266C76.0579 72.8131 77.7429 72.1875 79.5 72.1875C81.2571 72.1875 82.9422 72.8131 84.1846 73.9266C85.427 75.0401 86.125 76.5503 86.125 78.125ZM75.2203 32.7269L55.3453 50.5394C55.0376 50.8158 54.672 51.0352 54.2696 51.1849C53.8671 51.3345 53.4357 51.4116 53 51.4116C52.5643 51.4116 52.1329 51.3345 51.7304 51.1849C51.328 51.0352 50.9625 50.8158 50.6548 50.5394L40.7173 41.6331C40.4093 41.3571 40.165 41.0294 39.9983 40.6688C39.8316 40.3081 39.7458 39.9216 39.7458 39.5312C39.7458 39.1409 39.8316 38.7544 39.9983 38.3937C40.165 38.0331 40.4093 37.7054 40.7173 37.4294C41.0252 37.1534 41.3909 36.9344 41.7933 36.785C42.1957 36.6356 42.6269 36.5588 43.0625 36.5588C43.4981 36.5588 43.9293 36.6356 44.3317 36.785C44.7341 36.9344 45.0998 37.1534 45.4078 37.4294L53 44.2397L70.5298 28.5231C70.8377 28.2471 71.2034 28.0281 71.6058 27.8788C72.0082 27.7294 72.4395 27.6525 72.875 27.6525C73.3106 27.6525 73.7419 27.7294 74.1442 27.8788C74.5466 28.0281 74.9123 28.2471 75.2203 28.5231C75.5282 28.7991 75.7725 29.1268 75.9392 29.4875C76.1059 29.8481 76.1917 30.2346 76.1917 30.625C76.1917 31.0154 76.1059 31.4019 75.9392 31.7625C75.7725 32.1232 75.5282 32.4509 75.2203 32.7269Z" fill="#6AC649"/>
</svg>
