<svg width="24" height="23" viewBox="0 0 24 23" fill="none" xmlns="http://www.w3.org/2000/svg">
<g clip-path="url(#clip0_25_1417)">
<path d="M21 1.4375C21.3978 1.4375 21.7794 1.58895 22.0607 1.85853C22.342 2.12812 22.5 2.49375 22.5 2.875V20.125C22.5 20.5062 22.342 20.8719 22.0607 21.1415C21.7794 21.411 21.3978 21.5625 21 21.5625H3C2.60218 21.5625 2.22064 21.411 1.93934 21.1415C1.65804 20.8719 1.5 20.5062 1.5 20.125V2.875C1.5 2.49375 1.65804 2.12812 1.93934 1.85853C2.22064 1.58895 2.60218 1.4375 3 1.4375H21ZM3 0C2.20435 0 1.44129 0.302901 0.87868 0.842068C0.316071 1.38124 0 2.1125 0 2.875L0 20.125C0 20.8875 0.316071 21.6188 0.87868 22.1579C1.44129 22.6971 2.20435 23 3 23H21C21.7956 23 22.5587 22.6971 23.1213 22.1579C23.6839 21.6188 24 20.8875 24 20.125V2.875C24 2.1125 23.6839 1.38124 23.1213 0.842068C22.5587 0.302901 21.7956 0 21 0L3 0Z" fill="#A1A1A1"/>
<path d="M10.503 15.8124C10.503 15.6236 10.5418 15.4367 10.6172 15.2623C10.6926 15.0878 10.8031 14.9294 10.9423 14.7959C11.0816 14.6624 11.247 14.5565 11.429 14.4843C11.611 14.412 11.806 14.3749 12.003 14.3749C12.2 14.3749 12.395 14.412 12.577 14.4843C12.759 14.5565 12.9244 14.6624 13.0637 14.7959C13.2029 14.9294 13.3134 15.0878 13.3888 15.2623C13.4642 15.4367 13.503 15.6236 13.503 15.8124C13.503 16.1936 13.345 16.5592 13.0637 16.8288C12.7824 17.0984 12.4008 17.2499 12.003 17.2499C11.6052 17.2499 11.2236 17.0984 10.9423 16.8288C10.661 16.5592 10.503 16.1936 10.503 15.8124ZM10.65 7.18018C10.63 6.99882 10.6501 6.81547 10.7088 6.64202C10.7675 6.46856 10.8637 6.30888 10.991 6.17333C11.1183 6.03778 11.2739 5.9294 11.4477 5.85521C11.6215 5.78102 11.8097 5.74268 12 5.74268C12.1903 5.74268 12.3785 5.78102 12.5523 5.85521C12.7261 5.9294 12.8817 6.03778 13.009 6.17333C13.1363 6.30888 13.2325 6.46856 13.2912 6.64202C13.3499 6.81547 13.37 6.99882 13.35 7.18018L12.825 12.2215C12.8074 12.4195 12.7128 12.604 12.56 12.7385C12.4073 12.8729 12.2074 12.9475 12 12.9475C11.7926 12.9475 11.5927 12.8729 11.44 12.7385C11.2872 12.604 11.1926 12.4195 11.175 12.2215L10.65 7.18018Z" fill="#A1A1A1"/>
</g>
<defs>
<clipPath id="clip0_25_1417">
<rect width="24" height="23" fill="white"/>
</clipPath>
</defs>
</svg>
