<svg width="17" height="17" viewBox="0 0 17 17" fill="none" xmlns="http://www.w3.org/2000/svg">
<g clip-path="url(#clip0_8_376)">
<path d="M8.19056 0.0956082C10.3121 0.120954 12.3368 0.988055 13.819 2.50616C15.3013 4.02427 16.1198 6.06902 16.0944 8.1906C16.0691 10.3122 15.202 12.3368 13.6839 13.8191C12.1658 15.3013 10.121 16.1198 7.99943 16.0945C5.87785 16.0691 3.85323 15.202 2.37097 13.6839C0.888707 12.1658 0.0702198 10.1211 0.0955653 7.99947C0.120911 5.87789 0.988013 3.85327 2.50612 2.37101C4.02422 0.88875 6.06898 0.0702627 8.19056 0.0956082ZM4.60122 7.55326C4.46862 7.55168 4.34082 7.60283 4.24594 7.69548C4.15106 7.78812 4.09686 7.91466 4.09528 8.04725C4.0937 8.17985 4.14485 8.30765 4.23749 8.40253C4.33013 8.49741 4.45667 8.55161 4.58927 8.55319L10.3819 8.62239L8.20938 10.7426C8.11437 10.8354 8.06011 10.962 8.05853 11.0948C8.05694 11.2276 8.10816 11.3555 8.20092 11.4505C8.29368 11.5455 8.42038 11.5998 8.55314 11.6014C8.68591 11.603 8.81387 11.5518 8.90887 11.459L11.9445 8.49505C11.9916 8.44916 12.0292 8.39443 12.0551 8.33399C12.0811 8.27355 12.0948 8.20859 12.0956 8.14283C12.0964 8.07707 12.0842 8.0118 12.0597 7.95076C12.0352 7.88971 11.999 7.8341 11.9529 7.7871L8.989 4.75148C8.89624 4.65648 8.76954 4.60221 8.63678 4.60063C8.50401 4.59904 8.37605 4.65026 8.28105 4.74302C8.18605 4.83578 8.13179 4.96248 8.1302 5.09524C8.12861 5.22801 8.17983 5.35597 8.27259 5.45097L10.3938 7.62246L4.60122 7.55326Z" fill="#2B4C59"/>
</g>
<defs>
<clipPath id="clip0_8_376">
<rect width="16" height="16" fill="white" transform="translate(0 15.9989) rotate(-89.3155)"/>
</clipPath>
</defs>
</svg>
