<svg width="12" height="18" viewBox="0 0 12 18" fill="none" xmlns="http://www.w3.org/2000/svg">
<path fill-rule="evenodd" clip-rule="evenodd" d="M5.76923 4.90899C4.9726 4.90899 4.32692 5.64152 4.32692 6.54532C4.32692 7.44912 4.9726 8.18165 5.76923 8.18165C6.56587 8.18165 7.21154 7.44912 7.21154 6.54532C7.21154 5.64152 6.56587 4.90899 5.76923 4.90899ZM5.76923 9.27254C4.44183 9.27254 3.36538 8.05184 3.36538 6.54532C3.36538 5.03881 4.44183 3.8181 5.76923 3.8181C7.09663 3.8181 8.17308 5.03881 8.17308 6.54532C8.17308 8.05184 7.09663 9.27254 5.76923 9.27254ZM5.76923 0C2.58317 0 0 2.93067 0 6.54532C0 9.28236 4.8101 17.4602 5.76923 17.4542C6.71346 17.4602 11.5385 9.24527 11.5385 6.54532C11.5385 2.93067 8.95529 0 5.76923 0Z" fill="black"/>
</svg>
