<svg width="28" height="18" viewBox="0 0 28 18" fill="none" xmlns="http://www.w3.org/2000/svg">
<path fill-rule="evenodd" clip-rule="evenodd" d="M35.363 8.80974C35.3634 9.05543 35.2336 9.29126 35.0023 9.46534C34.7709 9.63942 34.457 9.73749 34.1294 9.73799L5.00052 9.78199L12.7825 15.599C13.0146 15.7726 13.1453 16.0084 13.1456 16.2544C13.146 16.5004 13.0161 16.7365 12.7845 16.9108C12.5528 17.0851 12.2384 17.1833 11.9105 17.1838C11.5825 17.1843 11.2678 17.087 11.0357 16.9134L1.14442 9.51731C1.02928 9.43143 0.937872 9.32934 0.875442 9.21689C0.813013 9.10444 0.780783 8.98383 0.780599 8.86198C0.780415 8.74013 0.81228 8.61943 0.87437 8.50679C0.936459 8.39415 1.02756 8.29178 1.14244 8.20555L11.0113 0.779572C11.2429 0.605272 11.5573 0.507073 11.8853 0.506578C12.2132 0.506082 12.5279 0.603331 12.7601 0.776931C12.9922 0.95053 13.1229 1.18626 13.1232 1.43226C13.1236 1.67826 12.9937 1.91439 12.7621 2.08869L4.99772 7.92923L34.1266 7.88522C34.4542 7.88473 34.7684 7.98185 35.0003 8.15523C35.2322 8.32862 35.3627 8.56405 35.363 8.80974Z" fill="#2B4C59"/>
</svg>
