<svg width="34" height="32" viewBox="0 0 34 32" fill="none" xmlns="http://www.w3.org/2000/svg">
<path d="M28.6875 16.7599V15.2299L30.7275 13.5499C31.1035 13.238 31.3503 12.8109 31.4242 12.3443C31.4981 11.8777 31.3943 11.4015 31.1313 10.9999L28.6238 6.99992C28.4374 6.69618 28.1695 6.4439 27.8469 6.26838C27.5243 6.09286 27.1583 6.00028 26.7856 5.99992C26.5547 5.99825 26.325 6.03203 26.1056 6.09992L23.5238 6.91992C23.078 6.64113 22.613 6.39057 22.1319 6.16992L21.59 3.64992C21.4928 3.18952 21.2267 2.77596 20.8382 2.48162C20.4497 2.18728 19.9636 2.03092 19.465 2.03992H14.4925C13.9939 2.03092 13.5078 2.18728 13.1193 2.48162C12.7308 2.77596 12.4647 3.18952 12.3675 3.64992L11.8256 6.16992C11.3411 6.39052 10.8725 6.64107 10.4231 6.91992L7.89438 6.05992C7.67263 6.00554 7.443 5.98528 7.21438 5.99992C6.84173 6.00028 6.47574 6.09286 6.15311 6.26838C5.83049 6.4439 5.56257 6.69618 5.37625 6.99992L2.86875 10.9999C2.62075 11.4009 2.52859 11.8706 2.60807 12.3285C2.68754 12.7864 2.93369 13.204 3.30438 13.5099L5.3125 15.2399V16.7699L3.30438 18.4499C2.92322 18.7579 2.67034 19.183 2.59059 19.6499C2.51084 20.1167 2.60939 20.595 2.86875 20.9999L5.37625 24.9999C5.56257 25.3037 5.83049 25.5559 6.15311 25.7315C6.47574 25.907 6.84173 25.9996 7.21438 25.9999C7.44531 26.0016 7.67499 25.9678 7.89438 25.8999L10.4763 25.0799C10.922 25.3587 11.387 25.6093 11.8681 25.8299L12.41 28.3499C12.5072 28.8103 12.7733 29.2239 13.1618 29.5182C13.5503 29.8126 14.0364 29.9689 14.535 29.9599H19.55C20.0486 29.9689 20.5347 29.8126 20.9232 29.5182C21.3117 29.2239 21.5778 28.8103 21.675 28.3499L22.2169 25.8299C22.7014 25.6093 23.17 25.3588 23.6194 25.0799L26.1906 25.8999C26.41 25.9678 26.6397 26.0016 26.8706 25.9999C27.2433 25.9996 27.6093 25.907 27.9319 25.7315C28.2545 25.5559 28.5224 25.3037 28.7088 24.9999L31.1313 20.9999C31.3793 20.5989 31.4714 20.1293 31.3919 19.6714C31.3125 19.2134 31.0663 18.7958 30.6956 18.4899L28.6875 16.7599ZM26.7856 23.9999L23.1413 22.8399C22.2881 23.52 21.3131 24.0517 20.2619 24.4099L19.5075 27.9999H14.4925L13.7381 24.4499C12.6952 24.0815 11.7255 23.5508 10.8694 22.8799L7.21438 23.9999L4.70688 19.9999L7.59688 17.5999C7.40042 16.5648 7.40042 15.5051 7.59688 14.4699L4.70688 11.9999L7.21438 7.99992L10.8588 9.15992C11.7119 8.47981 12.6869 7.94817 13.7381 7.58992L14.4925 3.99992H19.5075L20.2619 7.54992C21.3048 7.91834 22.2746 8.44906 23.1306 9.11992L26.7856 7.99992L29.2931 11.9999L26.4031 14.3999C26.5996 15.4351 26.5996 16.4948 26.4031 17.5299L29.2931 19.9999L26.7856 23.9999Z" fill="#A2A2A2"/>
<path d="M17 22C15.7391 22 14.5066 21.6481 13.4582 20.9888C12.4099 20.3295 11.5928 19.3925 11.1103 18.2961C10.6278 17.1997 10.5015 15.9933 10.7475 14.8295C10.9935 13.6656 11.6006 12.5965 12.4922 11.7574C13.3838 10.9182 14.5197 10.3468 15.7563 10.1153C16.9929 9.88378 18.2747 10.0026 19.4396 10.4567C20.6045 10.9109 21.6001 11.6799 22.3006 12.6666C23.0011 13.6533 23.375 14.8133 23.375 16C23.3835 16.7902 23.2245 17.574 22.9071 18.3056C22.5897 19.0371 22.1205 19.7018 21.5268 20.2605C20.9331 20.8193 20.227 21.2609 19.4497 21.5596C18.6724 21.8583 17.8395 22.008 17 22ZM17 12C16.4383 11.9877 15.8798 12.0827 15.3582 12.2794C14.8367 12.4761 14.363 12.7702 13.9657 13.1442C13.5684 13.5181 13.2558 13.9639 13.0469 14.4548C12.8379 14.9457 12.7369 15.4713 12.75 16C12.7369 16.5287 12.8379 17.0543 13.0469 17.5452C13.2558 18.0361 13.5684 18.4819 13.9657 18.8558C14.363 19.2298 14.8367 19.524 15.3582 19.7206C15.8798 19.9173 16.4383 20.0123 17 20C17.5617 20.0123 18.1202 19.9173 18.6418 19.7206C19.1633 19.524 19.6371 19.2298 20.0343 18.8558C20.4316 18.4819 20.7442 18.0361 20.9531 17.5452C21.1621 17.0543 21.2631 16.5287 21.25 16C21.2631 15.4713 21.1621 14.9457 20.9531 14.4548C20.7442 13.9639 20.4316 13.5181 20.0343 13.1442C19.6371 12.7702 19.1633 12.4761 18.6418 12.2794C18.1202 12.0827 17.5617 11.9877 17 12Z" fill="#A2A2A2"/>
</svg>
