<svg width="34" height="32" viewBox="0 0 34 32" fill="none" xmlns="http://www.w3.org/2000/svg">
<path d="M15.1786 16C15.1786 16.4547 15.3705 16.8907 15.7121 17.2122C16.0537 17.5337 16.5169 17.7143 17 17.7143C17.4831 17.7143 17.9464 17.5337 18.2879 17.2122C18.6295 16.8907 18.8214 16.4547 18.8214 16C18.8214 15.5453 18.6295 15.1093 18.2879 14.7878C17.9464 14.4663 17.4831 14.2857 17 14.2857C16.5169 14.2857 16.0537 14.4663 15.7121 14.7878C15.3705 15.1093 15.1786 15.5453 15.1786 16ZM22.7678 16C22.7678 16.4547 22.9597 16.8907 23.3013 17.2122C23.6428 17.5337 24.1061 17.7143 24.5892 17.7143C25.0723 17.7143 25.5355 17.5337 25.8771 17.2122C26.2187 16.8907 26.4106 16.4547 26.4106 16C26.4106 15.5453 26.2187 15.1093 25.8771 14.7878C25.5355 14.4663 25.0723 14.2857 24.5892 14.2857C24.1061 14.2857 23.6428 14.4663 23.3013 14.7878C22.9597 15.1093 22.7678 15.5453 22.7678 16ZM7.58941 16C7.58941 16.4547 7.7813 16.8907 8.12288 17.2122C8.46446 17.5337 8.92774 17.7143 9.41081 17.7143C9.89388 17.7143 10.3572 17.5337 10.6987 17.2122C11.0403 16.8907 11.2322 16.4547 11.2322 16C11.2322 15.5453 11.0403 15.1093 10.6987 14.7878C10.3572 14.4663 9.89388 14.2857 9.41081 14.2857C8.92774 14.2857 8.46446 14.4663 8.12288 14.7878C7.7813 15.1093 7.58941 15.5453 7.58941 16ZM32.6793 9.8C31.8217 7.88214 30.5922 6.16071 29.0251 4.68214C27.4689 3.21213 25.6215 2.04365 23.5874 1.24286C21.5004 0.417857 19.2843 0 17 0H16.9241C14.6246 0.0107143 12.3972 0.439286 10.3025 1.28214C8.28593 2.09115 6.45582 3.2617 4.91422 4.72857C3.36223 6.20357 2.14416 7.91786 1.30176 9.82857C0.429005 11.8071 -0.0111685 13.9107 0.000215278 16.075C0.0130913 18.5553 0.636538 20.999 1.82162 23.2143V28.6429C1.82162 29.0786 2.00552 29.4964 2.33287 29.8045C2.66022 30.1126 3.1042 30.2857 3.56713 30.2857H9.33871C11.6925 31.4011 14.2889 31.9879 16.9241 32H17.0038C19.2768 32 21.4814 31.5857 23.5571 30.775C25.5808 29.9838 27.4214 28.8289 28.9757 27.375C30.5429 25.9143 31.7762 24.2071 32.6375 22.3036C33.5331 20.3321 33.9884 18.2357 33.9998 16.0714C34.0112 13.8964 33.5634 11.7857 32.6793 9.8ZM26.9456 25.4429C24.2856 27.9214 20.7567 29.2857 17 29.2857H16.9355C14.6474 29.275 12.3744 28.7393 10.3671 27.7321L10.0483 27.5714H4.70551V22.5429L4.53476 22.2429C3.46468 20.3536 2.89549 18.2143 2.88411 16.0607C2.86893 12.5 4.31467 9.15714 6.96709 6.63929C9.61572 4.12143 13.1561 2.72857 16.9393 2.71429H17.0038C18.9011 2.71429 20.7415 3.06071 22.4756 3.74643C24.168 4.41429 25.6858 5.375 26.9912 6.60357C28.2927 7.82857 29.3173 9.26071 30.0268 10.8536C30.763 12.5036 31.1311 14.2536 31.1235 16.0607C31.1007 19.6179 29.617 22.95 26.9456 25.4429Z" fill="#988080"/>
</svg>
