<svg width="29" height="28" viewBox="0 0 29 28" fill="none" xmlns="http://www.w3.org/2000/svg">
<path fill-rule="evenodd" clip-rule="evenodd" d="M7.83653 21.4997C12.7992 20.7997 16.2161 20.8599 21.1852 21.5242C21.5451 21.5746 21.8739 21.749 22.111 22.0152C22.3481 22.2814 22.4774 22.6214 22.475 22.9725C22.475 23.3085 22.3554 23.6347 22.1393 23.8895C21.7628 24.3337 21.377 24.7706 20.9822 25.1999H22.897C23.0173 25.0613 23.1384 24.9199 23.2609 24.7764C23.6909 24.2672 23.9255 23.6302 23.925 22.9732C23.925 21.5557 22.8535 20.3342 21.3839 20.1382C16.2973 19.4585 12.7419 19.3934 7.627 20.1151C6.1422 20.3244 5.075 21.5648 5.075 22.9921C5.075 23.6256 5.28888 24.2521 5.69415 24.7596C5.81378 24.9094 5.93195 25.0564 6.0494 25.2006H7.91773C7.55046 24.7761 7.19224 24.3443 6.84328 23.9056C6.6359 23.643 6.52403 23.3216 6.525 22.9914C6.525 22.2375 7.08615 21.6054 7.83653 21.4997ZM14.5 14.6999C15.0713 14.6999 15.6369 14.5913 16.1647 14.3802C16.6924 14.1691 17.172 13.8598 17.5759 13.4698C17.9799 13.0797 18.3003 12.6167 18.5189 12.1072C18.7375 11.5976 18.85 11.0515 18.85 10.4999C18.85 9.94835 18.7375 9.4022 18.5189 8.89263C18.3003 8.38306 17.9799 7.92006 17.5759 7.53005C17.172 7.14005 16.6924 6.83068 16.1647 6.61961C15.6369 6.40854 15.0713 6.2999 14.5 6.2999C13.3463 6.2999 12.2399 6.7424 11.4241 7.53005C10.6083 8.31771 10.15 9.38599 10.15 10.4999C10.15 11.6138 10.6083 12.6821 11.4241 13.4698C12.2399 14.2574 13.3463 14.6999 14.5 14.6999ZM14.5 16.0999C16.0383 16.0999 17.5135 15.5099 18.6012 14.4597C19.6889 13.4095 20.3 11.9851 20.3 10.4999C20.3 9.01469 19.6889 7.59031 18.6012 6.5401C17.5135 5.4899 16.0383 4.8999 14.5 4.8999C12.9617 4.8999 11.4865 5.4899 10.3988 6.5401C9.31107 7.59031 8.7 9.01469 8.7 10.4999C8.7 11.9851 9.31107 13.4095 10.3988 14.4597C11.4865 15.5099 12.9617 16.0999 14.5 16.0999Z" fill="#A2A2A2"/>
<path fill-rule="evenodd" clip-rule="evenodd" d="M14.5 26.6C21.7072 26.6 27.55 20.9587 27.55 14C27.55 7.0413 21.7072 1.4 14.5 1.4C7.29278 1.4 1.45 7.0413 1.45 14C1.45 20.9587 7.29278 26.6 14.5 26.6ZM14.5 28C22.5084 28 29 21.7322 29 14C29 6.2678 22.5084 0 14.5 0C6.49165 0 0 6.2678 0 14C0 21.7322 6.49165 28 14.5 28Z" fill="#A2A2A2"/>
</svg>
