<svg width="44" height="41" viewBox="0 0 44 41" fill="none" xmlns="http://www.w3.org/2000/svg">
<path d="M18.8495 10.0484C18.8469 11.4309 20.0467 12.5539 21.5294 12.5567C23.0121 12.5595 24.2162 11.4411 24.2188 10.0586C24.2214 8.67614 23.0216 7.55314 21.5389 7.55033C20.0562 7.54752 18.8521 8.66595 18.8495 10.0484Z" fill="white"/>
<path d="M18.8305 20.0612C18.8279 21.4437 20.0277 22.5667 21.5104 22.5695C22.9931 22.5723 24.1972 21.4538 24.1998 20.0714C24.2024 18.6889 23.0026 17.5659 21.5199 17.5631C20.0372 17.5603 18.8331 18.6787 18.8305 20.0612Z" fill="white"/>
<path d="M18.8115 30.074C18.8089 31.4565 20.0087 32.5795 21.4914 32.5823C22.9741 32.5851 24.1782 31.4667 24.1808 30.0842C24.1835 28.7017 22.9836 27.5787 21.5009 27.5759C20.0182 27.5731 18.8142 28.6915 18.8115 30.074Z" fill="white"/>
</svg>
