<svg width="21" height="20" viewBox="0 0 21 20" fill="none" xmlns="http://www.w3.org/2000/svg">
<path d="M18.0395 3.3335H2.40792C2.06244 3.3335 1.73111 3.481 1.48682 3.74355C1.24253 4.0061 1.10529 4.36219 1.10529 4.7335V15.9335C1.10529 16.3048 1.24253 16.6609 1.48682 16.9234C1.73111 17.186 2.06244 17.3335 2.40792 17.3335H18.0395C18.385 17.3335 18.7163 17.186 18.9606 16.9234C19.2049 16.6609 19.3421 16.3048 19.3421 15.9335V4.7335C19.3421 4.36219 19.2049 4.0061 18.9606 3.74355C18.7163 3.481 18.385 3.3335 18.0395 3.3335ZM16.6066 4.7335L10.2237 9.4795L3.84081 4.7335H16.6066ZM2.40792 15.9335V5.3705L9.85246 10.9075C9.96148 10.9888 10.091 11.0323 10.2237 11.0323C10.3564 11.0323 10.4859 10.9888 10.595 10.9075L18.0395 5.3705V15.9335H2.40792Z" fill="#C64949"/>
</svg>
