<svg width="26" height="24" viewBox="0 0 26 24" fill="none" xmlns="http://www.w3.org/2000/svg">
<path d="M21.5402 18.7944L25.0801 22.0884C25.2451 22.2475 25.3365 22.4607 25.3344 22.6819C25.3324 22.9031 25.237 23.1147 25.069 23.2712C24.901 23.4276 24.6737 23.5163 24.4361 23.5183C24.1985 23.5202 23.9695 23.4351 23.7986 23.2815L20.2588 19.9858C17.9456 21.8309 14.9547 22.7703 11.9137 22.6066C8.87272 22.4429 6.01799 21.189 3.94857 19.108C1.87915 17.0269 0.755908 14.2805 0.814532 11.445C0.873156 8.60955 2.10909 5.90541 4.263 3.90005C6.4169 1.89469 9.32134 0.743993 12.3669 0.689412C15.4124 0.634831 18.3622 1.68061 20.5974 3.60731C22.8326 5.53401 24.1794 8.19186 24.3552 11.0231C24.531 13.8544 23.5221 16.639 21.5402 18.7927V18.7944ZM12.5937 20.9375C15.2376 20.9375 17.7732 19.9597 19.6427 18.2191C21.5122 16.4785 22.5625 14.1178 22.5625 11.6563C22.5625 9.19472 21.5122 6.834 19.6427 5.09343C17.7732 3.35286 15.2376 2.37501 12.5937 2.37501C9.94987 2.37501 7.41428 3.35286 5.54477 5.09343C3.67527 6.834 2.62499 9.19472 2.62499 11.6563C2.62499 14.1178 3.67527 16.4785 5.54477 18.2191C7.41428 19.9597 9.94987 20.9375 12.5937 20.9375Z" fill="#988080"/>
</svg>
