<svg width="19" height="20" viewBox="0 0 19 20" fill="none" xmlns="http://www.w3.org/2000/svg">
<path d="M12.0709 13.425L13.4009 12.025C13.5801 11.8388 13.8067 11.7113 14.0533 11.6581C14.3 11.6048 14.556 11.6281 14.7903 11.725L16.4113 12.4063C16.648 12.5074 16.8511 12.6801 16.9948 12.9026C17.1385 13.125 17.2164 13.3873 17.2188 13.6563V16.7813C17.2174 16.9643 17.1808 17.1451 17.1113 17.3128C17.0418 17.4805 16.9408 17.6317 16.8143 17.7573C16.6878 17.8828 16.5385 17.9801 16.3754 18.0433C16.2122 18.1065 16.0386 18.1343 15.865 18.125C4.50657 17.3813 2.21469 7.25628 1.78125 3.38128C1.76113 3.19099 1.77952 2.99837 1.83519 2.81609C1.89087 2.63382 1.98258 2.46602 2.10429 2.32374C2.226 2.18145 2.37495 2.0679 2.54135 1.99057C2.70774 1.91323 2.8878 1.87385 3.06969 1.87503H5.9375C6.19342 1.87582 6.44325 1.95719 6.65487 2.10867C6.86649 2.26015 7.03022 2.4748 7.125 2.72503L7.77219 4.43128C7.86734 4.67694 7.89162 4.94668 7.84199 5.20678C7.79235 5.46689 7.67102 5.70584 7.49313 5.89378L6.16313 7.29378C6.16313 7.29378 6.92907 12.75 12.0709 13.425Z" fill="#4174FA"/>
</svg>
