<svg width="23" height="30" viewBox="0 0 23 30" fill="none" xmlns="http://www.w3.org/2000/svg">
<path d="M2.27801 8.70143C1.85451 5.85449 3.82122 3.29723 6.82562 2.36032C7.35877 2.19394 7.93402 2.2413 8.43415 2.49275C8.93428 2.7442 9.32167 3.18081 9.51738 3.71363L10.4819 6.33879C10.6372 6.76111 10.6652 7.22115 10.5625 7.65987C10.4598 8.09859 10.231 8.49597 9.9054 8.801L7.03626 11.4827C6.89483 11.6152 6.78945 11.7828 6.73038 11.9692C6.67132 12.1556 6.66059 12.3545 6.69923 12.5464L6.72584 12.6641L6.79458 12.9583C7.15139 14.3877 7.69507 15.7617 8.41096 17.0431C9.1908 18.4048 10.1586 19.6448 11.2845 20.7251L11.3732 20.8066C11.5165 20.9363 11.6902 21.026 11.8775 21.0669C12.0648 21.1077 12.2593 21.0983 12.442 21.0397L16.1514 19.847C16.573 19.7119 17.0245 19.7085 17.448 19.8371C17.8715 19.9657 18.2477 20.2206 18.5283 20.569L20.2844 22.7438C21.0161 23.649 20.9274 24.9797 20.0871 25.7785C17.7878 27.9669 14.626 28.415 12.4264 26.6113C9.7303 24.3916 7.45744 21.6844 5.72142 18.625C3.97131 15.5679 2.8023 12.2011 2.27579 8.70143H2.27801ZM9.02514 12.6957L11.4021 10.4689C12.0536 9.85907 12.5116 9.06443 12.7175 8.18698C12.9233 7.30952 12.8675 6.3893 12.5573 5.54445L11.595 2.91929C11.201 1.84716 10.4214 0.968666 9.41497 0.462822C8.40852 -0.0430216 7.25096 -0.138149 6.17818 0.196824C2.44652 1.3623 -0.549008 4.77727 0.0851298 9.04315C0.528583 12.0213 1.55074 15.8097 3.8057 19.7656C5.67865 23.0644 8.13038 25.9834 11.0384 28.3765C14.3377 31.0809 18.7412 30.1576 21.6015 27.4374C22.4199 26.6596 22.9167 25.5924 22.9904 24.4535C23.0642 23.3146 22.7094 22.1899 21.9984 21.309L20.2423 19.1319C19.6805 18.436 18.9279 17.9272 18.0809 17.6707C17.2339 17.4143 16.3312 17.4219 15.4885 17.6926L12.4087 18.6816C11.6135 17.8447 10.917 16.9159 10.3333 15.9138C9.76953 14.9008 9.33016 13.8207 9.02514 12.698V12.6957Z" fill="#2B4C59"/>
</svg>
