<svg width="38" height="36" viewBox="0 0 38 36" fill="none" xmlns="http://www.w3.org/2000/svg">
<path d="M34.5 19V24.25C34.5 27.0348 33.3411 29.7055 31.2782 31.6746C29.2153 33.6438 26.4174 34.75 23.5 34.75H12.5C9.58262 34.75 6.78473 33.6438 4.72183 31.6746C2.65893 29.7055 1.5 27.0348 1.5 24.25V13.75C1.5 10.9652 2.65893 8.29451 4.72183 6.32538C6.78473 4.35625 9.58262 3.25 12.5 3.25H18M30.8333 12C32.292 12 33.691 11.4469 34.7224 10.4623C35.7539 9.47774 36.3333 8.14239 36.3333 6.75C36.3333 5.35761 35.7539 4.02226 34.7224 3.03769C33.691 2.05312 32.292 1.5 30.8333 1.5C29.3746 1.5 27.9757 2.05312 26.9442 3.03769C25.9128 4.02226 25.3333 5.35761 25.3333 6.75C25.3333 8.14239 25.9128 9.47774 26.9442 10.4623C27.9757 11.4469 29.3746 12 30.8333 12Z" stroke="#2B4C59" stroke-width="1.5" stroke-linecap="round" stroke-linejoin="round"/>
</svg>
