<svg width="20" height="11" viewBox="0 0 20 11" fill="none" xmlns="http://www.w3.org/2000/svg">
<path d="M9.9 4.54177H20V8.37894C20 8.90219 19.55 9.33344 19 9.33344C18.45 9.33344 18 8.90219 18 8.37894V6.45844H16V8.37511C16 8.90219 15.55 9.33344 15 9.33344C14.45 9.33344 14 8.90219 14 8.37511V6.45844H9.9C9.64908 7.61932 8.95818 8.64991 7.96074 9.35116C6.9633 10.0524 5.73009 10.3746 4.49929 10.2554C3.26848 10.1363 2.12741 9.5843 1.29645 8.70605C0.465497 7.8278 0.00361069 6.68562 2.52787e-06 5.50011C-0.00124362 4.31182 0.458283 3.16548 1.28938 2.28362C2.12047 1.40176 3.26383 0.847305 4.49751 0.727883C5.73118 0.608462 6.96715 0.932597 7.96548 1.63736C8.9638 2.34213 9.65326 3.37725 9.9 4.54177ZM5 8.37511C5.79565 8.37511 6.55871 8.07221 7.12132 7.53304C7.68393 6.99387 8 6.2626 8 5.50011C8 4.73761 7.68393 4.00634 7.12132 3.46717C6.55871 2.92801 5.79565 2.62511 5 2.62511C4.20435 2.62511 3.44129 2.92801 2.87868 3.46717C2.31607 4.00634 2 4.73761 2 5.50011C2 6.2626 2.31607 6.99387 2.87868 7.53304C3.44129 8.07221 4.20435 8.37511 5 8.37511Z" fill="#A2A2A2"/>
</svg>
